<svg width="383" height="165" viewBox="0 0 383 165" fill="none" xmlns="http://www.w3.org/2000/svg">
<rect x="173.5" y="65.5" width="29" height="29" rx="7.5" fill="#76B947" stroke="#DAD6CA"/>
<rect x="173.5" y="30.5" width="29" height="29" rx="7.5" fill="#4F8699" stroke="#DAD6CA"/>
<rect x="173.5" y="0.5" width="29" height="29" rx="7.5" fill="#563444" stroke="#DAD6CA"/>
<rect x="173.5" y="100.5" width="29" height="29" rx="7.5" fill="white" stroke="#DAD6CA"/>
<rect x="173.5" y="135.5" width="29" height="29" rx="7.5" fill="#A6D886" stroke="#DAD6CA"/>
<rect x="203.5" y="65.5" width="29" height="29" rx="7.5" fill="#A6D886" stroke="#DAD6CA"/>
<rect x="203.5" y="30.5" width="29" height="29" rx="7.5" fill="#4F8699" stroke="#DAD6CA"/>
<rect x="203.5" y="0.5" width="29" height="29" rx="7.5" fill="#563444" stroke="#DAD6CA"/>
<rect x="203.5" y="100.5" width="29" height="29" rx="7.5" fill="#76B947" stroke="#DAD6CA"/>
<rect x="203.5" y="135.5" width="29" height="29" rx="7.5" fill="#457146" stroke="#DAD6CA"/>
<rect x="233.5" y="65.5" width="29" height="29" rx="7.5" fill="#457146" stroke="#DAD6CA"/>
<rect x="233.5" y="30.5" width="29" height="29" rx="7.5" fill="#4F8699" stroke="#DAD6CA"/>
<rect x="233.5" y="0.5" width="29" height="29" rx="7.5" fill="#563444" stroke="#DAD6CA"/>
<rect x="233.5" y="100.5" width="29" height="29" rx="7.5" fill="white" stroke="#DAD6CA"/>
<rect x="233.5" y="135.5" width="29" height="29" rx="7.5" fill="white" stroke="#DAD6CA"/>
<rect x="263.5" y="65.5" width="29" height="29" rx="7.5" fill="#A6D886" stroke="#DAD6CA"/>
<rect x="263.5" y="30.5" width="29" height="29" rx="7.5" fill="#4F8699" stroke="#DAD6CA"/>
<rect x="263.5" y="0.5" width="29" height="29" rx="7.5" fill="#563444" stroke="#DAD6CA"/>
<rect x="263.5" y="100.5" width="29" height="29" rx="7.5" fill="#76B947" stroke="#DAD6CA"/>
<rect x="263.5" y="135.5" width="29" height="29" rx="7.5" fill="#457146" stroke="#DAD6CA"/>
<rect x="293.5" y="65.5" width="29" height="29" rx="7.5" fill="#76B947" stroke="#DAD6CA"/>
<rect x="293.5" y="30.5" width="29" height="29" rx="7.5" fill="#4F8699" stroke="#DAD6CA"/>
<rect x="293.5" y="0.5" width="29" height="29" rx="7.5" fill="#563444" stroke="#DAD6CA"/>
<rect x="293.5" y="100.5" width="29" height="29" rx="7.5" fill="#457146" stroke="#DAD6CA"/>
<rect x="293.5" y="135.5" width="29" height="29" rx="7.5" fill="#76B947" stroke="#DAD6CA"/>
<rect x="323.5" y="65.5" width="29" height="29" rx="7.5" fill="white" stroke="#DAD6CA"/>
<rect x="353.5" y="65.5" width="29" height="29" rx="7.5" fill="white" stroke="#DAD6CA"/>
<rect x="323.5" y="30.5" width="29" height="29" rx="7.5" fill="#4F8699" stroke="#DAD6CA"/>
<rect x="353.5" y="30.5" width="29" height="29" rx="7.5" fill="#4F8699" stroke="#DAD6CA"/>
<rect x="323.5" y="0.5" width="29" height="29" rx="7.5" fill="#563444" stroke="#DAD6CA"/>
<rect x="353.5" y="0.5" width="29" height="29" rx="7.5" fill="#563444" stroke="#DAD6CA"/>
<rect x="323.5" y="100.5" width="29" height="29" rx="7.5" fill="#E69E4C" stroke="#DAD6CA"/>
<rect x="353.5" y="100.5" width="29" height="29" rx="7.5" fill="white" stroke="#DAD6CA"/>
<rect x="323.5" y="135.5" width="29" height="29" rx="7.5" fill="white" stroke="#DAD6CA"/>
<rect x="353.5" y="135.5" width="29" height="29" rx="7.5" fill="#A6D886" stroke="#DAD6CA"/>
<path d="M188.54 22C188.407 22 188.287 21.9533 188.18 21.86C188.087 21.7667 188.04 21.6467 188.04 21.5V11.98L185.3 14.08C185.18 14.1733 185.053 14.2067 184.92 14.18C184.8 14.1533 184.693 14.08 184.6 13.96L183.42 12.42C183.34 12.3 183.307 12.1733 183.32 12.04C183.347 11.8933 183.427 11.78 183.56 11.7L188.16 8.14C188.24 8.08667 188.313 8.05333 188.38 8.04C188.46 8.01333 188.547 8 188.64 8H191.14C191.273 8 191.387 8.04667 191.48 8.14C191.587 8.23333 191.64 8.35333 191.64 8.5V21.5C191.64 21.6467 191.587 21.7667 191.48 21.86C191.387 21.9533 191.273 22 191.14 22H188.54Z" fill="#DAD6CA"/>
<path d="M181.9 52C181.767 52 181.647 51.9533 181.54 51.86C181.447 51.7667 181.4 51.6467 181.4 51.5V38.5C181.4 38.3533 181.447 38.2333 181.54 38.14C181.647 38.0467 181.767 38 181.9 38H184.06C184.273 38 184.433 38.06 184.54 38.18C184.66 38.2867 184.733 38.3733 184.76 38.44L188.28 44.76L191.8 38.44C191.84 38.3733 191.907 38.2867 192 38.18C192.107 38.06 192.273 38 192.5 38H194.64C194.787 38 194.907 38.0467 195 38.14C195.107 38.2333 195.16 38.3533 195.16 38.5V51.5C195.16 51.6467 195.107 51.7667 195 51.86C194.907 51.9533 194.787 52 194.64 52H192.26C192.113 52 191.987 51.9533 191.88 51.86C191.787 51.7667 191.74 51.6467 191.74 51.5V44L189.48 48.18C189.427 48.3 189.347 48.4067 189.24 48.5C189.133 48.5933 188.987 48.64 188.8 48.64H187.76C187.573 48.64 187.427 48.5933 187.32 48.5C187.213 48.4067 187.127 48.3 187.06 48.18L184.8 44V51.5C184.8 51.6467 184.753 51.7667 184.66 51.86C184.567 51.9533 184.447 52 184.3 52H181.9Z" fill="#DAD6CA"/>
<path d="M5.98 87C5.83333 87 5.71333 86.9533 5.62 86.86C5.52667 86.7667 5.48 86.6467 5.48 86.5V76.14H1.92C1.77333 76.14 1.65333 76.0933 1.56 76C1.46667 75.8933 1.42 75.7733 1.42 75.64V73.5C1.42 73.3533 1.46667 73.2333 1.56 73.14C1.65333 73.0467 1.77333 73 1.92 73H12.68C12.8267 73 12.9467 73.0467 13.04 73.14C13.1333 73.2333 13.18 73.3533 13.18 73.5V75.64C13.18 75.7733 13.1333 75.8933 13.04 76C12.9467 76.0933 12.8267 76.14 12.68 76.14H9.12V86.5C9.12 86.6467 9.07333 86.7667 8.98 86.86C8.88667 86.9533 8.76667 87 8.62 87H5.98ZM14.0425 87C13.8958 87 13.7758 86.9533 13.6825 86.86C13.5892 86.7667 13.5425 86.6467 13.5425 86.5V77.1C13.5425 76.9667 13.5892 76.8533 13.6825 76.76C13.7758 76.6533 13.8958 76.6 14.0425 76.6H16.3425C16.4892 76.6 16.6092 76.6533 16.7025 76.76C16.7958 76.8533 16.8425 76.9667 16.8425 77.1V77.9C17.2025 77.4867 17.6292 77.1667 18.1225 76.94C18.6292 76.7133 19.1958 76.6 19.8225 76.6H20.7025C20.8358 76.6 20.9492 76.6467 21.0425 76.74C21.1492 76.8333 21.2025 76.9533 21.2025 77.1V79.16C21.2025 79.2933 21.1492 79.4133 21.0425 79.52C20.9492 79.6133 20.8358 79.66 20.7025 79.66H18.7625C18.2158 79.66 17.7892 79.8133 17.4825 80.12C17.1892 80.4133 17.0425 80.8333 17.0425 81.38V86.5C17.0425 86.6467 16.9892 86.7667 16.8825 86.86C16.7892 86.9533 16.6692 87 16.5225 87H14.0425ZM25.3688 87.2C24.6488 87.2 24.0021 87.0667 23.4288 86.8C22.8688 86.52 22.4221 86.1467 22.0888 85.68C21.7554 85.2133 21.5888 84.6867 21.5888 84.1C21.5888 83.1533 21.9754 82.4067 22.7488 81.86C23.5221 81.3 24.5488 80.92 25.8288 80.72L28.3288 80.34V80.06C28.3288 79.58 28.2288 79.2133 28.0288 78.96C27.8288 78.7067 27.4621 78.58 26.9288 78.58C26.5554 78.58 26.2488 78.6533 26.0088 78.8C25.7821 78.9467 25.6021 79.1467 25.4688 79.4C25.3488 79.5733 25.1821 79.66 24.9688 79.66H22.7288C22.5821 79.66 22.4688 79.62 22.3888 79.54C22.3088 79.4467 22.2754 79.34 22.2888 79.22C22.2888 78.98 22.3754 78.7067 22.5488 78.4C22.7354 78.08 23.0154 77.7667 23.3888 77.46C23.7621 77.1533 24.2421 76.9 24.8288 76.7C25.4154 76.5 26.1221 76.4 26.9488 76.4C27.8154 76.4 28.5554 76.5 29.1688 76.7C29.7821 76.9 30.2754 77.18 30.6488 77.54C31.0354 77.9 31.3221 78.3267 31.5088 78.82C31.6954 79.3 31.7888 79.8333 31.7888 80.42V86.5C31.7888 86.6467 31.7354 86.7667 31.6288 86.86C31.5354 86.9533 31.4221 87 31.2888 87H28.9688C28.8221 87 28.7021 86.9533 28.6088 86.86C28.5154 86.7667 28.4688 86.6467 28.4688 86.5V85.8C28.2954 86.0533 28.0621 86.2867 27.7688 86.5C27.4754 86.7133 27.1288 86.88 26.7288 87C26.3421 87.1333 25.8888 87.2 25.3688 87.2ZM26.3088 84.92C26.6954 84.92 27.0421 84.84 27.3488 84.68C27.6688 84.5067 27.9154 84.2467 28.0888 83.9C28.2754 83.54 28.3688 83.0933 28.3688 82.56V82.28L26.6688 82.58C26.0421 82.6867 25.5821 82.8533 25.2888 83.08C25.0088 83.2933 24.8688 83.5467 24.8688 83.84C24.8688 84.0667 24.9354 84.26 25.0688 84.42C25.2021 84.58 25.3754 84.7067 25.5888 84.8C25.8021 84.88 26.0421 84.92 26.3088 84.92ZM34.3456 87C34.199 87 34.079 86.9533 33.9856 86.86C33.8923 86.7667 33.8456 86.6467 33.8456 86.5V77.1C33.8456 76.9533 33.8923 76.8333 33.9856 76.74C34.079 76.6467 34.199 76.6 34.3456 76.6H36.7056C36.839 76.6 36.9523 76.6467 37.0456 76.74C37.1523 76.8333 37.2056 76.9533 37.2056 77.1V86.5C37.2056 86.6467 37.1523 86.7667 37.0456 86.86C36.9523 86.9533 36.839 87 36.7056 87H34.3456ZM34.3256 75.1C34.179 75.1 34.059 75.0533 33.9656 74.96C33.8723 74.8667 33.8256 74.7467 33.8256 74.6V72.82C33.8256 72.6733 33.8723 72.5533 33.9656 72.46C34.059 72.3533 34.179 72.3 34.3256 72.3H36.7056C36.8523 72.3 36.9723 72.3533 37.0656 72.46C37.1723 72.5533 37.2256 72.6733 37.2256 72.82V74.6C37.2256 74.7467 37.1723 74.8667 37.0656 74.96C36.9723 75.0533 36.8523 75.1 36.7056 75.1H34.3256ZM40.4738 87C40.3271 87 40.2071 86.9533 40.1138 86.86C40.0204 86.7667 39.9738 86.6467 39.9738 86.5V77.1C39.9738 76.9533 40.0204 76.8333 40.1138 76.74C40.2071 76.6467 40.3271 76.6 40.4738 76.6H42.7738C42.9204 76.6 43.0404 76.6467 43.1338 76.74C43.2271 76.8333 43.2738 76.9533 43.2738 77.1V77.86C43.6204 77.4467 44.0738 77.1 44.6338 76.82C45.1938 76.54 45.8538 76.4 46.6138 76.4C47.3871 76.4 48.0671 76.5733 48.6538 76.92C49.2538 77.2667 49.7204 77.78 50.0538 78.46C50.4004 79.1267 50.5738 79.9467 50.5738 80.92V86.5C50.5738 86.6467 50.5204 86.7667 50.4138 86.86C50.3204 86.9533 50.2071 87 50.0738 87H47.5538C47.4204 87 47.3004 86.9533 47.1938 86.86C47.1004 86.7667 47.0538 86.6467 47.0538 86.5V81.04C47.0538 80.4133 46.9004 79.9333 46.5938 79.6C46.3004 79.2533 45.8604 79.08 45.2738 79.08C44.7271 79.08 44.2871 79.2533 43.9538 79.6C43.6338 79.9333 43.4738 80.4133 43.4738 81.04V86.5C43.4738 86.6467 43.4204 86.7667 43.3138 86.86C43.2204 86.9533 43.1071 87 42.9738 87H40.4738ZM53.1058 87C52.9591 87 52.8391 86.9533 52.7458 86.86C52.6524 86.7667 52.6058 86.6467 52.6058 86.5V77.1C52.6058 76.9533 52.6524 76.8333 52.7458 76.74C52.8391 76.6467 52.9591 76.6 53.1058 76.6H55.4658C55.5991 76.6 55.7124 76.6467 55.8058 76.74C55.9124 76.8333 55.9658 76.9533 55.9658 77.1V86.5C55.9658 86.6467 55.9124 86.7667 55.8058 86.86C55.7124 86.9533 55.5991 87 55.4658 87H53.1058ZM53.0858 75.1C52.9391 75.1 52.8191 75.0533 52.7258 74.96C52.6324 74.8667 52.5858 74.7467 52.5858 74.6V72.82C52.5858 72.6733 52.6324 72.5533 52.7258 72.46C52.8191 72.3533 52.9391 72.3 53.0858 72.3H55.4658C55.6124 72.3 55.7324 72.3533 55.8258 72.46C55.9324 72.5533 55.9858 72.6733 55.9858 72.82V74.6C55.9858 74.7467 55.9324 74.8667 55.8258 74.96C55.7324 75.0533 55.6124 75.1 55.4658 75.1H53.0858ZM59.2339 87C59.0872 87 58.9672 86.9533 58.8739 86.86C58.7806 86.7667 58.7339 86.6467 58.7339 86.5V77.1C58.7339 76.9533 58.7806 76.8333 58.8739 76.74C58.9672 76.6467 59.0872 76.6 59.2339 76.6H61.5339C61.6806 76.6 61.8006 76.6467 61.8939 76.74C61.9872 76.8333 62.0339 76.9533 62.0339 77.1V77.86C62.3806 77.4467 62.8339 77.1 63.3939 76.82C63.9539 76.54 64.6139 76.4 65.3739 76.4C66.1472 76.4 66.8272 76.5733 67.4139 76.92C68.0139 77.2667 68.4806 77.78 68.8139 78.46C69.1606 79.1267 69.3339 79.9467 69.3339 80.92V86.5C69.3339 86.6467 69.2806 86.7667 69.1739 86.86C69.0806 86.9533 68.9672 87 68.8339 87H66.3139C66.1806 87 66.0606 86.9533 65.9539 86.86C65.8606 86.7667 65.8139 86.6467 65.8139 86.5V81.04C65.8139 80.4133 65.6606 79.9333 65.3539 79.6C65.0606 79.2533 64.6206 79.08 64.0339 79.08C63.4872 79.08 63.0472 79.2533 62.7139 79.6C62.3939 79.9333 62.2339 80.4133 62.2339 81.04V86.5C62.2339 86.6467 62.1806 86.7667 62.0739 86.86C61.9806 86.9533 61.8672 87 61.7339 87H59.2339ZM76.4659 91.4C75.4393 91.4 74.5859 91.2667 73.9059 91C73.2393 90.7333 72.7059 90.4133 72.3059 90.04C71.9193 89.6667 71.6393 89.2933 71.4659 88.92C71.2926 88.56 71.1993 88.2733 71.1859 88.06C71.1726 87.9133 71.2193 87.7933 71.3259 87.7C71.4326 87.6067 71.5593 87.56 71.7059 87.56H74.2459C74.3659 87.56 74.4659 87.5867 74.5459 87.64C74.6393 87.7067 74.7126 87.8133 74.7659 87.96C74.8326 88.1067 74.9193 88.26 75.0259 88.42C75.1459 88.58 75.3059 88.7067 75.5059 88.8C75.7193 88.9067 76.0059 88.96 76.3659 88.96C76.7659 88.96 77.0993 88.8933 77.3659 88.76C77.6326 88.64 77.8326 88.4333 77.9659 88.14C78.0993 87.86 78.1659 87.48 78.1659 87V85.66C77.8593 85.9933 77.4659 86.2667 76.9859 86.48C76.5059 86.68 75.9259 86.78 75.2459 86.78C74.5659 86.78 73.9659 86.68 73.4459 86.48C72.9259 86.28 72.4926 85.98 72.1459 85.58C71.7993 85.18 71.5259 84.6933 71.3259 84.12C71.1393 83.5467 71.0259 82.8867 70.9859 82.14C70.9726 81.7933 70.9726 81.4467 70.9859 81.1C71.0259 80.38 71.1393 79.7333 71.3259 79.16C71.5126 78.5867 71.7793 78.0933 72.1259 77.68C72.4859 77.2667 72.9259 76.9533 73.4459 76.74C73.9659 76.5133 74.5659 76.4 75.2459 76.4C75.9659 76.4 76.5793 76.54 77.0859 76.82C77.6059 77.0867 78.0326 77.4267 78.3659 77.84V77.1C78.3659 76.9667 78.4126 76.8533 78.5059 76.76C78.5993 76.6533 78.7193 76.6 78.8659 76.6H81.1659C81.3126 76.6 81.4326 76.6533 81.5259 76.76C81.6326 76.8533 81.6859 76.9667 81.6859 77.1V86.72C81.6859 87.7333 81.4793 88.5867 81.0659 89.28C80.6526 89.9733 80.0593 90.5 79.2859 90.86C78.5126 91.22 77.5726 91.4 76.4659 91.4ZM76.3259 84.18C76.7526 84.18 77.0993 84.0867 77.3659 83.9C77.6326 83.7133 77.8259 83.4733 77.9459 83.18C78.0793 82.8867 78.1526 82.5733 78.1659 82.24C78.1793 82.0933 78.1859 81.8867 78.1859 81.62C78.1859 81.3533 78.1793 81.1533 78.1659 81.02C78.1526 80.6733 78.0793 80.3533 77.9459 80.06C77.8259 79.7667 77.6326 79.5333 77.3659 79.36C77.0993 79.1733 76.7526 79.08 76.3259 79.08C75.8859 79.08 75.5326 79.1733 75.2659 79.36C75.0126 79.5467 74.8259 79.8 74.7059 80.12C74.5993 80.44 74.5326 80.7933 74.5059 81.18C74.4926 81.4733 74.4926 81.7733 74.5059 82.08C74.5326 82.4667 74.5993 82.82 74.7059 83.14C74.8259 83.46 75.0126 83.7133 75.2659 83.9C75.5326 84.0867 75.8859 84.18 76.3259 84.18Z" fill="#4F8699"/>
<path d="M7.26 122.2C6.06 122.2 5.00667 122.007 4.1 121.62C3.20667 121.22 2.51333 120.613 2.02 119.8C1.52667 118.973 1.28 117.927 1.28 116.66V108.5C1.28 108.353 1.32667 108.233 1.42 108.14C1.51333 108.047 1.63333 108 1.78 108H4.36C4.50667 108 4.62667 108.047 4.72 108.14C4.81333 108.233 4.86 108.353 4.86 108.5V116.64C4.86 117.507 5.06667 118.16 5.48 118.6C5.90667 119.027 6.5 119.24 7.26 119.24C8.00667 119.24 8.58667 119.027 9 118.6C9.42667 118.16 9.64 117.507 9.64 116.64V108.5C9.64 108.353 9.68667 108.233 9.78 108.14C9.88667 108.047 10.0067 108 10.14 108H12.74C12.8733 108 12.9867 108.047 13.08 108.14C13.1867 108.233 13.24 108.353 13.24 108.5V116.66C13.24 117.927 12.9933 118.973 12.5 119.8C12.0067 120.613 11.3133 121.22 10.42 121.62C9.52667 122.007 8.47333 122.2 7.26 122.2ZM15.9722 122C15.8255 122 15.7055 121.953 15.6122 121.86C15.5189 121.767 15.4722 121.647 15.4722 121.5V112.1C15.4722 111.953 15.5189 111.833 15.6122 111.74C15.7055 111.647 15.8255 111.6 15.9722 111.6H18.2722C18.4189 111.6 18.5389 111.647 18.6322 111.74C18.7255 111.833 18.7722 111.953 18.7722 112.1V112.86C19.1189 112.447 19.5722 112.1 20.1322 111.82C20.6922 111.54 21.3522 111.4 22.1122 111.4C22.8855 111.4 23.5655 111.573 24.1522 111.92C24.7522 112.267 25.2189 112.78 25.5522 113.46C25.8989 114.127 26.0722 114.947 26.0722 115.92V121.5C26.0722 121.647 26.0189 121.767 25.9122 121.86C25.8189 121.953 25.7055 122 25.5722 122H23.0522C22.9189 122 22.7989 121.953 22.6922 121.86C22.5989 121.767 22.5522 121.647 22.5522 121.5V116.04C22.5522 115.413 22.3989 114.933 22.0922 114.6C21.7989 114.253 21.3589 114.08 20.7722 114.08C20.2255 114.08 19.7855 114.253 19.4522 114.6C19.1322 114.933 18.9722 115.413 18.9722 116.04V121.5C18.9722 121.647 18.9189 121.767 18.8122 121.86C18.7189 121.953 18.6055 122 18.4722 122H15.9722ZM28.6042 122C28.4576 122 28.3376 121.953 28.2442 121.86C28.1509 121.767 28.1042 121.647 28.1042 121.5V112.1C28.1042 111.953 28.1509 111.833 28.2442 111.74C28.3376 111.647 28.4576 111.6 28.6042 111.6H30.9642C31.0976 111.6 31.2109 111.647 31.3042 111.74C31.4109 111.833 31.4642 111.953 31.4642 112.1V121.5C31.4642 121.647 31.4109 121.767 31.3042 121.86C31.2109 121.953 31.0976 122 30.9642 122H28.6042ZM28.5842 110.1C28.4376 110.1 28.3176 110.053 28.2242 109.96C28.1309 109.867 28.0842 109.747 28.0842 109.6V107.82C28.0842 107.673 28.1309 107.553 28.2242 107.46C28.3176 107.353 28.4376 107.3 28.5842 107.3H30.9642C31.1109 107.3 31.2309 107.353 31.3242 107.46C31.4309 107.553 31.4842 107.673 31.4842 107.82V109.6C31.4842 109.747 31.4309 109.867 31.3242 109.96C31.2309 110.053 31.1109 110.1 30.9642 110.1H28.5842ZM37.3073 122C37.1073 122 36.9607 121.953 36.8673 121.86C36.774 121.753 36.694 121.633 36.6273 121.5L32.8473 112.22C32.8207 112.167 32.8073 112.107 32.8073 112.04C32.8073 111.92 32.8473 111.82 32.9273 111.74C33.0207 111.647 33.134 111.6 33.2673 111.6H35.5273C35.7007 111.6 35.834 111.647 35.9273 111.74C36.0207 111.833 36.0807 111.927 36.1073 112.02L38.3673 118.16L40.6473 112.02C40.674 111.927 40.734 111.833 40.8273 111.74C40.9207 111.647 41.054 111.6 41.2273 111.6H43.4873C43.6073 111.6 43.714 111.647 43.8073 111.74C43.9007 111.82 43.9473 111.92 43.9473 112.04C43.9473 112.107 43.934 112.167 43.9073 112.22L40.1273 121.5C40.074 121.633 39.994 121.753 39.8873 121.86C39.794 121.953 39.6407 122 39.4273 122H37.3073ZM49.7113 122.2C48.1379 122.2 46.8846 121.773 45.9513 120.92C45.0179 120.067 44.5313 118.8 44.4913 117.12C44.4913 117.027 44.4913 116.907 44.4913 116.76C44.4913 116.613 44.4913 116.5 44.4913 116.42C44.5313 115.367 44.7646 114.467 45.1913 113.72C45.6313 112.96 46.2313 112.387 46.9913 112C47.7646 111.6 48.6646 111.4 49.6913 111.4C50.8646 111.4 51.8313 111.633 52.5913 112.1C53.3646 112.567 53.9446 113.2 54.3313 114C54.7179 114.8 54.9113 115.713 54.9113 116.74V117.22C54.9113 117.367 54.8579 117.487 54.7513 117.58C54.6579 117.673 54.5446 117.72 54.4113 117.72H48.0113C48.0113 117.733 48.0113 117.753 48.0113 117.78C48.0113 117.807 48.0113 117.833 48.0113 117.86C48.0246 118.247 48.0913 118.6 48.2113 118.92C48.3313 119.24 48.5179 119.493 48.7713 119.68C49.0246 119.867 49.3313 119.96 49.6913 119.96C49.9579 119.96 50.1779 119.92 50.3513 119.84C50.5379 119.747 50.6913 119.647 50.8113 119.54C50.9313 119.42 51.0246 119.32 51.0913 119.24C51.2113 119.107 51.3046 119.027 51.3713 119C51.4513 118.96 51.5713 118.94 51.7313 118.94H54.2113C54.3446 118.94 54.4513 118.98 54.5313 119.06C54.6246 119.127 54.6646 119.227 54.6513 119.36C54.6379 119.587 54.5246 119.86 54.3113 120.18C54.0979 120.5 53.7846 120.82 53.3713 121.14C52.9713 121.447 52.4646 121.7 51.8513 121.9C51.2379 122.1 50.5246 122.2 49.7113 122.2ZM48.0113 115.74H51.3913V115.7C51.3913 115.273 51.3246 114.9 51.1913 114.58C51.0713 114.26 50.8779 114.013 50.6113 113.84C50.3579 113.667 50.0513 113.58 49.6913 113.58C49.3313 113.58 49.0246 113.667 48.7713 113.84C48.5313 114.013 48.3446 114.26 48.2113 114.58C48.0779 114.9 48.0113 115.273 48.0113 115.7V115.74ZM57.0863 122C56.9396 122 56.8196 121.953 56.7262 121.86C56.6329 121.767 56.5863 121.647 56.5863 121.5V112.1C56.5863 111.967 56.6329 111.853 56.7262 111.76C56.8196 111.653 56.9396 111.6 57.0863 111.6H59.3863C59.5329 111.6 59.6529 111.653 59.7463 111.76C59.8396 111.853 59.8863 111.967 59.8863 112.1V112.9C60.2463 112.487 60.6729 112.167 61.1663 111.94C61.6729 111.713 62.2396 111.6 62.8663 111.6H63.7463C63.8796 111.6 63.9929 111.647 64.0863 111.74C64.1929 111.833 64.2463 111.953 64.2463 112.1V114.16C64.2463 114.293 64.1929 114.413 64.0863 114.52C63.9929 114.613 63.8796 114.66 63.7463 114.66H61.8063C61.2596 114.66 60.8329 114.813 60.5263 115.12C60.2329 115.413 60.0863 115.833 60.0863 116.38V121.5C60.0863 121.647 60.0329 121.767 59.9263 121.86C59.8329 121.953 59.7129 122 59.5663 122H57.0863ZM69.7483 122.2C68.8816 122.2 68.1416 122.107 67.5283 121.92C66.9283 121.72 66.435 121.48 66.0483 121.2C65.675 120.92 65.395 120.633 65.2083 120.34C65.0216 120.033 64.9216 119.773 64.9083 119.56C64.895 119.413 64.9416 119.293 65.0483 119.2C65.155 119.093 65.2683 119.04 65.3883 119.04H67.6683C67.7083 119.04 67.7416 119.047 67.7683 119.06C67.795 119.073 67.835 119.1 67.8883 119.14C68.0616 119.233 68.235 119.353 68.4083 119.5C68.5816 119.633 68.7816 119.753 69.0083 119.86C69.235 119.967 69.5083 120.02 69.8283 120.02C70.2016 120.02 70.515 119.947 70.7683 119.8C71.0216 119.653 71.1483 119.433 71.1483 119.14C71.1483 118.927 71.0883 118.753 70.9683 118.62C70.8483 118.473 70.6016 118.333 70.2283 118.2C69.8683 118.067 69.3216 117.933 68.5883 117.8C67.895 117.64 67.2883 117.433 66.7683 117.18C66.2483 116.913 65.8483 116.573 65.5683 116.16C65.2883 115.733 65.1483 115.22 65.1483 114.62C65.1483 114.087 65.3216 113.573 65.6683 113.08C66.015 112.587 66.5216 112.187 67.1883 111.88C67.855 111.56 68.675 111.4 69.6483 111.4C70.4216 111.4 71.0883 111.493 71.6483 111.68C72.2216 111.853 72.7016 112.08 73.0883 112.36C73.4883 112.64 73.7883 112.927 73.9883 113.22C74.1883 113.513 74.295 113.78 74.3083 114.02C74.3216 114.153 74.2816 114.273 74.1883 114.38C74.095 114.473 73.9883 114.52 73.8683 114.52H71.7883C71.735 114.52 71.6816 114.513 71.6283 114.5C71.575 114.473 71.5283 114.447 71.4883 114.42C71.3283 114.34 71.1683 114.233 71.0083 114.1C70.8483 113.967 70.6616 113.847 70.4483 113.74C70.235 113.633 69.9683 113.58 69.6483 113.58C69.2883 113.58 69.0083 113.66 68.8083 113.82C68.6083 113.98 68.5083 114.187 68.5083 114.44C68.5083 114.613 68.5616 114.773 68.6683 114.92C68.7883 115.067 69.0216 115.2 69.3683 115.32C69.7283 115.44 70.2816 115.573 71.0283 115.72C71.9483 115.867 72.6816 116.107 73.2283 116.44C73.775 116.76 74.1616 117.14 74.3883 117.58C74.615 118.007 74.7283 118.46 74.7283 118.94C74.7283 119.58 74.535 120.147 74.1483 120.64C73.775 121.133 73.215 121.52 72.4683 121.8C71.7216 122.067 70.815 122.2 69.7483 122.2ZM76.823 122C76.6763 122 76.5563 121.953 76.463 121.86C76.3696 121.767 76.323 121.647 76.323 121.5V112.1C76.323 111.953 76.3696 111.833 76.463 111.74C76.5563 111.647 76.6763 111.6 76.823 111.6H79.183C79.3163 111.6 79.4296 111.647 79.523 111.74C79.6296 111.833 79.683 111.953 79.683 112.1V121.5C79.683 121.647 79.6296 121.767 79.523 121.86C79.4296 121.953 79.3163 122 79.183 122H76.823ZM76.803 110.1C76.6563 110.1 76.5363 110.053 76.443 109.96C76.3496 109.867 76.303 109.747 76.303 109.6V107.82C76.303 107.673 76.3496 107.553 76.443 107.46C76.5363 107.353 76.6563 107.3 76.803 107.3H79.183C79.3296 107.3 79.4496 107.353 79.543 107.46C79.6496 107.553 79.703 107.673 79.703 107.82V109.6C79.703 109.747 79.6496 109.867 79.543 109.96C79.4496 110.053 79.3296 110.1 79.183 110.1H76.803ZM87.1461 122C86.2928 122 85.5528 121.867 84.9261 121.6C84.3128 121.32 83.8394 120.893 83.5061 120.32C83.1728 119.733 83.0061 118.98 83.0061 118.06V114.22H81.4461C81.2994 114.22 81.1728 114.173 81.0661 114.08C80.9728 113.987 80.9261 113.867 80.9261 113.72V112.1C80.9261 111.953 80.9728 111.833 81.0661 111.74C81.1728 111.647 81.2994 111.6 81.4461 111.6H83.0061V108.3C83.0061 108.153 83.0528 108.033 83.1461 107.94C83.2528 107.847 83.3728 107.8 83.5061 107.8H85.8261C85.9728 107.8 86.0928 107.847 86.1861 107.94C86.2794 108.033 86.3261 108.153 86.3261 108.3V111.6H88.8261C88.9728 111.6 89.0928 111.647 89.1861 111.74C89.2794 111.833 89.3261 111.953 89.3261 112.1V113.72C89.3261 113.867 89.2794 113.987 89.1861 114.08C89.0928 114.173 88.9728 114.22 88.8261 114.22H86.3261V117.78C86.3261 118.233 86.4128 118.593 86.5861 118.86C86.7594 119.127 87.0528 119.26 87.4661 119.26H89.0061C89.1528 119.26 89.2728 119.307 89.3661 119.4C89.4594 119.493 89.5061 119.613 89.5061 119.76V121.5C89.5061 121.647 89.4594 121.767 89.3661 121.86C89.2728 121.953 89.1528 122 89.0061 122H87.1461ZM92.902 125.8C92.782 125.8 92.682 125.76 92.602 125.68C92.522 125.6 92.482 125.5 92.482 125.38C92.482 125.353 92.482 125.313 92.482 125.26C92.4954 125.22 92.5154 125.173 92.542 125.12L94.102 121.36L90.262 112.28C90.222 112.187 90.202 112.107 90.202 112.04C90.2287 111.92 90.282 111.82 90.362 111.74C90.442 111.647 90.542 111.6 90.662 111.6H92.942C93.1154 111.6 93.242 111.647 93.322 111.74C93.4154 111.82 93.4754 111.913 93.502 112.02L95.802 117.84L98.142 112.02C98.1954 111.913 98.262 111.82 98.342 111.74C98.4354 111.647 98.5687 111.6 98.742 111.6H100.982C101.102 111.6 101.202 111.647 101.282 111.74C101.375 111.82 101.422 111.913 101.422 112.02C101.422 112.087 101.402 112.173 101.362 112.28L95.702 125.38C95.662 125.487 95.5954 125.58 95.502 125.66C95.4087 125.753 95.2754 125.8 95.102 125.8H92.902Z" fill="#4F8699"/>
<path d="M5.98 157C5.83333 157 5.71333 156.953 5.62 156.86C5.52667 156.767 5.48 156.647 5.48 156.5V146.14H1.92C1.77333 146.14 1.65333 146.093 1.56 146C1.46667 145.893 1.42 145.773 1.42 145.64V143.5C1.42 143.353 1.46667 143.233 1.56 143.14C1.65333 143.047 1.77333 143 1.92 143H12.68C12.8267 143 12.9467 143.047 13.04 143.14C13.1333 143.233 13.18 143.353 13.18 143.5V145.64C13.18 145.773 13.1333 145.893 13.04 146C12.9467 146.093 12.8267 146.14 12.68 146.14H9.12V156.5C9.12 156.647 9.07333 156.767 8.98 156.86C8.88667 156.953 8.76667 157 8.62 157H5.98ZM14.0425 157C13.8958 157 13.7758 156.953 13.6825 156.86C13.5892 156.767 13.5425 156.647 13.5425 156.5V147.1C13.5425 146.967 13.5892 146.853 13.6825 146.76C13.7758 146.653 13.8958 146.6 14.0425 146.6H16.3425C16.4892 146.6 16.6092 146.653 16.7025 146.76C16.7958 146.853 16.8425 146.967 16.8425 147.1V147.9C17.2025 147.487 17.6292 147.167 18.1225 146.94C18.6292 146.713 19.1958 146.6 19.8225 146.6H20.7025C20.8358 146.6 20.9492 146.647 21.0425 146.74C21.1492 146.833 21.2025 146.953 21.2025 147.1V149.16C21.2025 149.293 21.1492 149.413 21.0425 149.52C20.9492 149.613 20.8358 149.66 20.7025 149.66H18.7625C18.2158 149.66 17.7892 149.813 17.4825 150.12C17.1892 150.413 17.0425 150.833 17.0425 151.38V156.5C17.0425 156.647 16.9892 156.767 16.8825 156.86C16.7892 156.953 16.6692 157 16.5225 157H14.0425ZM25.3688 157.2C24.6488 157.2 24.0021 157.067 23.4288 156.8C22.8688 156.52 22.4221 156.147 22.0888 155.68C21.7554 155.213 21.5888 154.687 21.5888 154.1C21.5888 153.153 21.9754 152.407 22.7488 151.86C23.5221 151.3 24.5488 150.92 25.8288 150.72L28.3288 150.34V150.06C28.3288 149.58 28.2288 149.213 28.0288 148.96C27.8288 148.707 27.4621 148.58 26.9288 148.58C26.5554 148.58 26.2488 148.653 26.0088 148.8C25.7821 148.947 25.6021 149.147 25.4688 149.4C25.3488 149.573 25.1821 149.66 24.9688 149.66H22.7288C22.5821 149.66 22.4688 149.62 22.3888 149.54C22.3088 149.447 22.2754 149.34 22.2888 149.22C22.2888 148.98 22.3754 148.707 22.5488 148.4C22.7354 148.08 23.0154 147.767 23.3888 147.46C23.7621 147.153 24.2421 146.9 24.8288 146.7C25.4154 146.5 26.1221 146.4 26.9488 146.4C27.8154 146.4 28.5554 146.5 29.1688 146.7C29.7821 146.9 30.2754 147.18 30.6488 147.54C31.0354 147.9 31.3221 148.327 31.5088 148.82C31.6954 149.3 31.7888 149.833 31.7888 150.42V156.5C31.7888 156.647 31.7354 156.767 31.6288 156.86C31.5354 156.953 31.4221 157 31.2888 157H28.9688C28.8221 157 28.7021 156.953 28.6088 156.86C28.5154 156.767 28.4688 156.647 28.4688 156.5V155.8C28.2954 156.053 28.0621 156.287 27.7688 156.5C27.4754 156.713 27.1288 156.88 26.7288 157C26.3421 157.133 25.8888 157.2 25.3688 157.2ZM26.3088 154.92C26.6954 154.92 27.0421 154.84 27.3488 154.68C27.6688 154.507 27.9154 154.247 28.0888 153.9C28.2754 153.54 28.3688 153.093 28.3688 152.56V152.28L26.6688 152.58C26.0421 152.687 25.5821 152.853 25.2888 153.08C25.0088 153.293 24.8688 153.547 24.8688 153.84C24.8688 154.067 24.9354 154.26 25.0688 154.42C25.2021 154.58 25.3754 154.707 25.5888 154.8C25.8021 154.88 26.0421 154.92 26.3088 154.92ZM37.2527 157C37.0527 157 36.906 156.953 36.8127 156.86C36.7193 156.753 36.6393 156.633 36.5727 156.5L32.7927 147.22C32.766 147.167 32.7527 147.107 32.7527 147.04C32.7527 146.92 32.7927 146.82 32.8727 146.74C32.966 146.647 33.0793 146.6 33.2127 146.6H35.4727C35.646 146.6 35.7793 146.647 35.8727 146.74C35.966 146.833 36.026 146.927 36.0527 147.02L38.3127 153.16L40.5927 147.02C40.6193 146.927 40.6793 146.833 40.7727 146.74C40.866 146.647 40.9993 146.6 41.1727 146.6H43.4327C43.5527 146.6 43.6593 146.647 43.7527 146.74C43.846 146.82 43.8927 146.92 43.8927 147.04C43.8927 147.107 43.8793 147.167 43.8527 147.22L40.0727 156.5C40.0193 156.633 39.9393 156.753 39.8327 156.86C39.7393 156.953 39.586 157 39.3727 157H37.2527ZM49.6566 157.2C48.0832 157.2 46.8299 156.773 45.8966 155.92C44.9632 155.067 44.4766 153.8 44.4366 152.12C44.4366 152.027 44.4366 151.907 44.4366 151.76C44.4366 151.613 44.4366 151.5 44.4366 151.42C44.4766 150.367 44.7099 149.467 45.1366 148.72C45.5766 147.96 46.1766 147.387 46.9366 147C47.7099 146.6 48.6099 146.4 49.6366 146.4C50.8099 146.4 51.7766 146.633 52.5366 147.1C53.3099 147.567 53.8899 148.2 54.2766 149C54.6632 149.8 54.8566 150.713 54.8566 151.74V152.22C54.8566 152.367 54.8032 152.487 54.6966 152.58C54.6032 152.673 54.4899 152.72 54.3566 152.72H47.9566C47.9566 152.733 47.9566 152.753 47.9566 152.78C47.9566 152.807 47.9566 152.833 47.9566 152.86C47.9699 153.247 48.0366 153.6 48.1566 153.92C48.2766 154.24 48.4632 154.493 48.7166 154.68C48.9699 154.867 49.2766 154.96 49.6366 154.96C49.9032 154.96 50.1232 154.92 50.2966 154.84C50.4832 154.747 50.6366 154.647 50.7566 154.54C50.8766 154.42 50.9699 154.32 51.0366 154.24C51.1566 154.107 51.2499 154.027 51.3166 154C51.3966 153.96 51.5166 153.94 51.6766 153.94H54.1566C54.2899 153.94 54.3966 153.98 54.4766 154.06C54.5699 154.127 54.6099 154.227 54.5966 154.36C54.5832 154.587 54.4699 154.86 54.2566 155.18C54.0432 155.5 53.7299 155.82 53.3166 156.14C52.9166 156.447 52.4099 156.7 51.7966 156.9C51.1832 157.1 50.4699 157.2 49.6566 157.2ZM47.9566 150.74H51.3366V150.7C51.3366 150.273 51.2699 149.9 51.1366 149.58C51.0166 149.26 50.8232 149.013 50.5566 148.84C50.3032 148.667 49.9966 148.58 49.6366 148.58C49.2766 148.58 48.9699 148.667 48.7166 148.84C48.4766 149.013 48.2899 149.26 48.1566 149.58C48.0232 149.9 47.9566 150.273 47.9566 150.7V150.74ZM57.0316 157C56.8849 157 56.7649 156.953 56.6716 156.86C56.5782 156.767 56.5316 156.647 56.5316 156.5V143.3C56.5316 143.153 56.5782 143.033 56.6716 142.94C56.7649 142.847 56.8849 142.8 57.0316 142.8H59.3916C59.5382 142.8 59.6582 142.847 59.7516 142.94C59.8449 143.033 59.8916 143.153 59.8916 143.3V156.5C59.8916 156.647 59.8449 156.767 59.7516 156.86C59.6582 156.953 59.5382 157 59.3916 157H57.0316Z" fill="#4F8699"/>
<path d="M212.34 22C212.193 22 212.067 21.9533 211.96 21.86C211.867 21.7667 211.82 21.6467 211.82 21.5V20.08C211.82 19.9867 211.847 19.8467 211.9 19.66C211.953 19.46 212.093 19.2733 212.32 19.1L214.4 17.06C215.467 16.2467 216.34 15.56 217.02 15C217.713 14.4267 218.227 13.92 218.56 13.48C218.893 13.04 219.06 12.6267 219.06 12.24C219.06 11.7867 218.94 11.4133 218.7 11.12C218.473 10.8133 218.073 10.66 217.5 10.66C217.113 10.66 216.787 10.7467 216.52 10.92C216.267 11.08 216.073 11.2933 215.94 11.56C215.807 11.8267 215.713 12.1 215.66 12.38C215.607 12.5533 215.513 12.6733 215.38 12.74C215.26 12.8067 215.127 12.84 214.98 12.84H212.48C212.36 12.84 212.26 12.8 212.18 12.72C212.1 12.64 212.06 12.54 212.06 12.42C212.073 11.78 212.207 11.18 212.46 10.62C212.727 10.06 213.093 9.56667 213.56 9.14C214.04 8.7 214.607 8.36 215.26 8.12C215.927 7.88 216.673 7.76 217.5 7.76C218.633 7.76 219.593 7.94 220.38 8.3C221.18 8.66 221.787 9.16667 222.2 9.82C222.613 10.46 222.82 11.2133 222.82 12.08C222.82 12.7333 222.673 13.3467 222.38 13.92C222.1 14.48 221.693 15.02 221.16 15.54C220.64 16.0467 220.02 16.5733 219.3 17.12L217.46 18.98H222.6C222.747 18.98 222.867 19.0267 222.96 19.12C223.067 19.2133 223.12 19.3333 223.12 19.48V21.5C223.12 21.6467 223.067 21.7667 222.96 21.86C222.867 21.9533 222.747 22 222.6 22H212.34Z" fill="#DAD6CA"/>
<path d="M216.98 52C216.833 52 216.713 51.9533 216.62 51.86C216.527 51.7667 216.48 51.6467 216.48 51.5V41.14H212.92C212.773 41.14 212.653 41.0933 212.56 41C212.467 40.8933 212.42 40.7733 212.42 40.64V38.5C212.42 38.3533 212.467 38.2333 212.56 38.14C212.653 38.0467 212.773 38 212.92 38H223.68C223.827 38 223.947 38.0467 224.04 38.14C224.133 38.2333 224.18 38.3533 224.18 38.5V40.64C224.18 40.7733 224.133 40.8933 224.04 41C223.947 41.0933 223.827 41.14 223.68 41.14H220.12V51.5C220.12 51.6467 220.073 51.7667 219.98 51.86C219.887 51.9533 219.767 52 219.62 52H216.98Z" fill="#DAD6CA"/>
<path d="M247.5 22.2C246.46 22.2 245.573 22.08 244.84 21.84C244.107 21.5867 243.507 21.2667 243.04 20.88C242.573 20.48 242.227 20.06 242 19.62C241.773 19.1667 241.653 18.7333 241.64 18.32C241.64 18.2 241.68 18.1 241.76 18.02C241.853 17.94 241.96 17.9 242.08 17.9H244.68C244.84 17.9 244.967 17.9333 245.06 18C245.153 18.0533 245.24 18.1467 245.32 18.28C245.427 18.5333 245.58 18.74 245.78 18.9C245.993 19.06 246.247 19.1733 246.54 19.24C246.833 19.2933 247.153 19.32 247.5 19.32C248.18 19.32 248.707 19.1667 249.08 18.86C249.467 18.54 249.66 18.1067 249.66 17.56C249.66 16.9867 249.48 16.58 249.12 16.34C248.76 16.0867 248.247 15.96 247.58 15.96H245.36C245.213 15.96 245.093 15.9133 245 15.82C244.907 15.7267 244.86 15.6067 244.86 15.46V14.34C244.86 14.18 244.893 14.04 244.96 13.92C245.027 13.8 245.1 13.7133 245.18 13.66L248.46 10.88H242.9C242.767 10.88 242.647 10.8333 242.54 10.74C242.447 10.6467 242.4 10.5267 242.4 10.38V8.5C242.4 8.35333 242.447 8.23333 242.54 8.14C242.647 8.04667 242.767 8 242.9 8H252.1C252.247 8 252.367 8.04667 252.46 8.14C252.567 8.23333 252.62 8.35333 252.62 8.5V10.2C252.62 10.3467 252.587 10.48 252.52 10.6C252.453 10.7067 252.38 10.7933 252.3 10.86L249.26 13.68L249.4 13.72C250.16 13.8133 250.84 14.02 251.44 14.34C252.04 14.6467 252.513 15.08 252.86 15.64C253.207 16.2 253.38 16.9133 253.38 17.78C253.38 18.6867 253.12 19.4733 252.6 20.14C252.093 20.7933 251.4 21.3 250.52 21.66C249.64 22.02 248.633 22.2 247.5 22.2Z" fill="#DAD6CA"/>
<path d="M243.64 52C243.413 52 243.233 51.9333 243.1 51.8C242.967 51.6667 242.887 51.5133 242.86 51.34L240.68 38.56C240.667 38.5333 240.66 38.5067 240.66 38.48C240.66 38.4533 240.66 38.4333 240.66 38.42C240.66 38.3133 240.7 38.22 240.78 38.14C240.873 38.0467 240.973 38 241.08 38H243.56C243.933 38 244.14 38.1467 244.18 38.44L245.48 46.26L246.92 41.64C246.96 41.5333 247.027 41.42 247.12 41.3C247.213 41.1667 247.367 41.1 247.58 41.1H249.02C249.247 41.1 249.407 41.1667 249.5 41.3C249.593 41.42 249.653 41.5333 249.68 41.64L251.12 46.24L252.42 38.44C252.46 38.1467 252.667 38 253.04 38H255.52C255.64 38 255.74 38.0467 255.82 38.14C255.9 38.22 255.94 38.3133 255.94 38.42C255.94 38.4333 255.94 38.4533 255.94 38.48C255.94 38.5067 255.94 38.5333 255.94 38.56L253.76 51.34C253.733 51.5133 253.653 51.6667 253.52 51.8C253.387 51.9333 253.207 52 252.98 52H251.08C250.853 52 250.68 51.94 250.56 51.82C250.44 51.7 250.36 51.5867 250.32 51.48L248.3 45.76L246.28 51.48C246.24 51.5867 246.16 51.7 246.04 51.82C245.933 51.94 245.767 52 245.54 52H243.64Z" fill="#DAD6CA"/>
<path d="M278.78 22C278.647 22 278.527 21.9533 278.42 21.86C278.327 21.7667 278.28 21.6467 278.28 21.5V19.24H272.06C271.927 19.24 271.807 19.1933 271.7 19.1C271.607 19.0067 271.56 18.8867 271.56 18.74V16.84C271.56 16.72 271.58 16.6133 271.62 16.52C271.673 16.4133 271.727 16.3133 271.78 16.22L277.6 8.34C277.773 8.11333 278.02 8 278.34 8H281.24C281.387 8 281.507 8.04667 281.6 8.14C281.707 8.23333 281.76 8.35333 281.76 8.5V16.26H283.52C283.68 16.26 283.807 16.3133 283.9 16.42C283.993 16.5133 284.04 16.6267 284.04 16.76V18.74C284.04 18.8867 283.987 19.0067 283.88 19.1C283.787 19.1933 283.673 19.24 283.54 19.24H281.76V21.5C281.76 21.6467 281.707 21.7667 281.6 21.86C281.507 21.9533 281.387 22 281.24 22H278.78ZM275 16.4H278.36V11.68L275 16.4Z" fill="#DAD6CA"/>
<path d="M276.98 52C276.833 52 276.713 51.9533 276.62 51.86C276.527 51.7667 276.48 51.6467 276.48 51.5V41.14H272.92C272.773 41.14 272.653 41.0933 272.56 41C272.467 40.8933 272.42 40.7733 272.42 40.64V38.5C272.42 38.3533 272.467 38.2333 272.56 38.14C272.653 38.0467 272.773 38 272.92 38H283.68C283.827 38 283.947 38.0467 284.04 38.14C284.133 38.2333 284.18 38.3533 284.18 38.5V40.64C284.18 40.7733 284.133 40.8933 284.04 41C283.947 41.0933 283.827 41.14 283.68 41.14H280.12V51.5C280.12 51.6467 280.073 51.7667 279.98 51.86C279.887 51.9533 279.767 52 279.62 52H276.98Z" fill="#DAD6CA"/>
<path d="M308.4 22.22C307.147 22.22 306.1 22.0267 305.26 21.64C304.42 21.24 303.78 20.7267 303.34 20.1C302.913 19.46 302.687 18.7733 302.66 18.04C302.66 17.92 302.7 17.82 302.78 17.74C302.86 17.66 302.96 17.62 303.08 17.62H305.76C305.933 17.62 306.067 17.66 306.16 17.74C306.267 17.8067 306.347 17.8933 306.4 18C306.52 18.3067 306.673 18.56 306.86 18.76C307.06 18.96 307.287 19.1067 307.54 19.2C307.807 19.2933 308.1 19.34 308.42 19.34C308.793 19.34 309.14 19.26 309.46 19.1C309.78 18.94 310.033 18.7067 310.22 18.4C310.42 18.08 310.52 17.7 310.52 17.26C310.52 16.86 310.427 16.5133 310.24 16.22C310.067 15.9267 309.82 15.6933 309.5 15.52C309.18 15.3467 308.82 15.26 308.42 15.26C308.1 15.26 307.84 15.3 307.64 15.38C307.44 15.4467 307.273 15.5333 307.14 15.64C307.007 15.7467 306.887 15.84 306.78 15.92C306.673 15.9867 306.553 16.02 306.42 16.02H303.8C303.68 16.02 303.573 15.98 303.48 15.9C303.4 15.8067 303.36 15.7 303.36 15.58L304.08 8.6C304.107 8.4 304.18 8.25333 304.3 8.16C304.42 8.05333 304.567 8 304.74 8H312.76C312.907 8 313.027 8.04667 313.12 8.14C313.213 8.23333 313.26 8.35333 313.26 8.5V10.38C313.26 10.5267 313.213 10.6467 313.12 10.74C313.027 10.8333 312.907 10.88 312.76 10.88H306.96L306.7 13.48C306.993 13.28 307.333 13.12 307.72 13C308.12 12.8667 308.66 12.8 309.34 12.8C309.98 12.8 310.587 12.9067 311.16 13.12C311.747 13.3333 312.267 13.64 312.72 14.04C313.187 14.44 313.547 14.92 313.8 15.48C314.067 16.0267 314.2 16.6467 314.2 17.34C314.2 18.2867 313.967 19.1267 313.5 19.86C313.047 20.5933 312.387 21.1733 311.52 21.6C310.653 22.0133 309.613 22.22 308.4 22.22Z" fill="#DAD6CA"/>
<path d="M303.9 52C303.753 52 303.633 51.9533 303.54 51.86C303.447 51.7667 303.4 51.6467 303.4 51.5V38.5C303.4 38.3533 303.447 38.2333 303.54 38.14C303.633 38.0467 303.753 38 303.9 38H313.08C313.227 38 313.347 38.0467 313.44 38.14C313.547 38.2333 313.6 38.3533 313.6 38.5V40.52C313.6 40.6667 313.547 40.7867 313.44 40.88C313.347 40.9733 313.227 41.02 313.08 41.02H306.92V43.96H312.68C312.827 43.96 312.947 44.0133 313.04 44.12C313.147 44.2133 313.2 44.3333 313.2 44.48V46.48C313.2 46.6133 313.147 46.7333 313.04 46.84C312.947 46.9333 312.827 46.98 312.68 46.98H306.92V51.5C306.92 51.6467 306.873 51.7667 306.78 51.86C306.687 51.9533 306.567 52 306.42 52H303.9Z" fill="#DAD6CA"/>
<path d="M337.6 22.2C336.427 22.2 335.393 21.9867 334.5 21.56C333.607 21.1333 332.907 20.5467 332.4 19.8C331.907 19.04 331.66 18.1733 331.66 17.2C331.66 16.7867 331.72 16.38 331.84 15.98C331.973 15.5667 332.133 15.18 332.32 14.82C332.507 14.4467 332.693 14.12 332.88 13.84C333.067 13.5467 333.22 13.3133 333.34 13.14L336.86 8.4C336.927 8.33333 337.013 8.25333 337.12 8.16C337.227 8.05333 337.38 8 337.58 8H340.24C340.36 8 340.46 8.04667 340.54 8.14C340.62 8.22 340.66 8.32 340.66 8.44C340.66 8.49333 340.653 8.54667 340.64 8.6C340.627 8.64 340.607 8.67333 340.58 8.7L337.88 12.38C337.96 12.3533 338.053 12.34 338.16 12.34C338.28 12.3267 338.387 12.32 338.48 12.32C339.08 12.3467 339.673 12.48 340.26 12.72C340.847 12.96 341.38 13.2867 341.86 13.7C342.34 14.1133 342.72 14.6133 343 15.2C343.293 15.7733 343.44 16.42 343.44 17.14C343.44 18.06 343.2 18.9067 342.72 19.68C342.24 20.44 341.56 21.0533 340.68 21.52C339.813 21.9733 338.787 22.2 337.6 22.2ZM337.58 19.32C337.967 19.32 338.327 19.24 338.66 19.08C338.993 18.9067 339.26 18.6667 339.46 18.36C339.673 18.04 339.78 17.6467 339.78 17.18C339.78 16.7133 339.68 16.3267 339.48 16.02C339.28 15.7 339.013 15.46 338.68 15.3C338.347 15.14 337.98 15.06 337.58 15.06C337.18 15.06 336.807 15.14 336.46 15.3C336.127 15.46 335.86 15.7 335.66 16.02C335.46 16.3267 335.36 16.7133 335.36 17.18C335.36 17.6467 335.46 18.04 335.66 18.36C335.873 18.6667 336.147 18.9067 336.48 19.08C336.813 19.24 337.18 19.32 337.58 19.32Z" fill="#DAD6CA"/>
<path d="M337.62 52.2C336.287 52.2 335.18 52.0133 334.3 51.64C333.42 51.2533 332.753 50.7533 332.3 50.14C331.847 49.5267 331.607 48.8733 331.58 48.18C331.58 48.0733 331.62 47.98 331.7 47.9C331.793 47.8067 331.9 47.76 332.02 47.76H334.54C334.727 47.76 334.867 47.7933 334.96 47.86C335.067 47.9267 335.16 48.0133 335.24 48.12C335.347 48.32 335.493 48.5133 335.68 48.7C335.88 48.8867 336.133 49.04 336.44 49.16C336.76 49.2667 337.153 49.32 337.62 49.32C338.393 49.32 338.973 49.2 339.36 48.96C339.76 48.72 339.96 48.3933 339.96 47.98C339.96 47.6867 339.853 47.4467 339.64 47.26C339.427 47.06 339.08 46.8867 338.6 46.74C338.133 46.58 337.507 46.42 336.72 46.26C335.707 46.0467 334.84 45.7733 334.12 45.44C333.413 45.0933 332.873 44.6467 332.5 44.1C332.127 43.54 331.94 42.8467 331.94 42.02C331.94 41.2067 332.167 40.48 332.62 39.84C333.087 39.2 333.733 38.7 334.56 38.34C335.387 37.98 336.367 37.8 337.5 37.8C338.42 37.8 339.227 37.92 339.92 38.16C340.627 38.4 341.22 38.72 341.7 39.12C342.18 39.52 342.54 39.9467 342.78 40.4C343.033 40.84 343.167 41.2733 343.18 41.7C343.18 41.8067 343.14 41.9067 343.06 42C342.98 42.08 342.88 42.12 342.76 42.12H340.12C339.973 42.12 339.847 42.0933 339.74 42.04C339.633 41.9867 339.54 41.9 339.46 41.78C339.38 41.4867 339.167 41.2333 338.82 41.02C338.487 40.7933 338.047 40.68 337.5 40.68C336.913 40.68 336.453 40.7867 336.12 41C335.8 41.2 335.64 41.5133 335.64 41.94C335.64 42.2067 335.727 42.44 335.9 42.64C336.087 42.84 336.387 43.0133 336.8 43.16C337.227 43.3067 337.807 43.46 338.54 43.62C339.753 43.8467 340.733 44.1333 341.48 44.48C342.227 44.8133 342.773 45.2533 343.12 45.8C343.467 46.3333 343.64 47.0067 343.64 47.82C343.64 48.7267 343.38 49.5133 342.86 50.18C342.353 50.8333 341.647 51.3333 340.74 51.68C339.833 52.0267 338.793 52.2 337.62 52.2Z" fill="#DAD6CA"/>
<path d="M363.82 22C363.7 22 363.6 21.96 363.52 21.88C363.44 21.7867 363.4 21.68 363.4 21.56C363.4 21.5067 363.413 21.4467 363.44 21.38L368.06 11.02H362.06C361.927 11.02 361.807 10.9733 361.7 10.88C361.607 10.7733 361.56 10.6467 361.56 10.5V8.5C361.56 8.35333 361.607 8.23333 361.7 8.14C361.807 8.04667 361.927 8 362.06 8H371.42C371.58 8 371.707 8.04667 371.8 8.14C371.893 8.23333 371.94 8.35333 371.94 8.5V10.28C371.94 10.48 371.92 10.6467 371.88 10.78C371.84 10.9133 371.787 11.0467 371.72 11.18L367.1 21.52C367.06 21.6 366.987 21.7 366.88 21.82C366.773 21.94 366.613 22 366.4 22H363.82Z" fill="#DAD6CA"/>
<path d="M367.62 52.2C366.287 52.2 365.18 52.0133 364.3 51.64C363.42 51.2533 362.753 50.7533 362.3 50.14C361.847 49.5267 361.607 48.8733 361.58 48.18C361.58 48.0733 361.62 47.98 361.7 47.9C361.793 47.8067 361.9 47.76 362.02 47.76H364.54C364.727 47.76 364.867 47.7933 364.96 47.86C365.067 47.9267 365.16 48.0133 365.24 48.12C365.347 48.32 365.493 48.5133 365.68 48.7C365.88 48.8867 366.133 49.04 366.44 49.16C366.76 49.2667 367.153 49.32 367.62 49.32C368.393 49.32 368.973 49.2 369.36 48.96C369.76 48.72 369.96 48.3933 369.96 47.98C369.96 47.6867 369.853 47.4467 369.64 47.26C369.427 47.06 369.08 46.8867 368.6 46.74C368.133 46.58 367.507 46.42 366.72 46.26C365.707 46.0467 364.84 45.7733 364.12 45.44C363.413 45.0933 362.873 44.6467 362.5 44.1C362.127 43.54 361.94 42.8467 361.94 42.02C361.94 41.2067 362.167 40.48 362.62 39.84C363.087 39.2 363.733 38.7 364.56 38.34C365.387 37.98 366.367 37.8 367.5 37.8C368.42 37.8 369.227 37.92 369.92 38.16C370.627 38.4 371.22 38.72 371.7 39.12C372.18 39.52 372.54 39.9467 372.78 40.4C373.033 40.84 373.167 41.2733 373.18 41.7C373.18 41.8067 373.14 41.9067 373.06 42C372.98 42.08 372.88 42.12 372.76 42.12H370.12C369.973 42.12 369.847 42.0933 369.74 42.04C369.633 41.9867 369.54 41.9 369.46 41.78C369.38 41.4867 369.167 41.2333 368.82 41.02C368.487 40.7933 368.047 40.68 367.5 40.68C366.913 40.68 366.453 40.7867 366.12 41C365.8 41.2 365.64 41.5133 365.64 41.94C365.64 42.2067 365.727 42.44 365.9 42.64C366.087 42.84 366.387 43.0133 366.8 43.16C367.227 43.3067 367.807 43.46 368.54 43.62C369.753 43.8467 370.733 44.1333 371.48 44.48C372.227 44.8133 372.773 45.2533 373.12 45.8C373.467 46.3333 373.64 47.0067 373.64 47.82C373.64 48.7267 373.38 49.5133 372.86 50.18C372.353 50.8333 371.647 51.3333 370.74 51.68C369.833 52.0267 368.793 52.2 367.62 52.2Z" fill="#DAD6CA"/>
</svg>
