<svg width="383" height="165" viewBox="0 0 383 165" fill="none" xmlns="http://www.w3.org/2000/svg">
<rect x="173.5" y="65.5" width="29" height="29" rx="7.5" fill="#76B947" stroke="#DAD6CA"/>
<rect x="173.5" y="30.5" width="29" height="29" rx="7.5" fill="#4F8699" stroke="#DAD6CA"/>
<rect x="173.5" y="0.5" width="29" height="29" rx="7.5" fill="#563444" stroke="#DAD6CA"/>
<rect x="173.5" y="100.5" width="29" height="29" rx="7.5" fill="white" stroke="#DAD6CA"/>
<rect x="173.5" y="135.5" width="29" height="29" rx="7.5" fill="#A6D886" stroke="#DAD6CA"/>
<rect x="203.5" y="65.5" width="29" height="29" rx="7.5" fill="#A6D886" stroke="#DAD6CA"/>
<rect x="203.5" y="30.5" width="29" height="29" rx="7.5" fill="#4F8699" stroke="#DAD6CA"/>
<rect x="203.5" y="0.5" width="29" height="29" rx="7.5" fill="#563444" stroke="#DAD6CA"/>
<rect x="203.5" y="100.5" width="29" height="29" rx="7.5" fill="#76B947" stroke="#DAD6CA"/>
<rect x="203.5" y="135.5" width="29" height="29" rx="7.5" fill="#457146" stroke="#DAD6CA"/>
<rect x="233.5" y="65.5" width="29" height="29" rx="7.5" fill="#457146" stroke="#DAD6CA"/>
<rect x="233.5" y="30.5" width="29" height="29" rx="7.5" fill="#4F8699" stroke="#DAD6CA"/>
<rect x="233.5" y="0.5" width="29" height="29" rx="7.5" fill="#563444" stroke="#DAD6CA"/>
<rect x="233.5" y="100.5" width="29" height="29" rx="7.5" fill="white" stroke="#DAD6CA"/>
<rect x="233.5" y="135.5" width="29" height="29" rx="7.5" fill="white" stroke="#DAD6CA"/>
<rect x="263.5" y="65.5" width="29" height="29" rx="7.5" fill="#A6D886" stroke="#DAD6CA"/>
<rect x="263.5" y="30.5" width="29" height="29" rx="7.5" fill="#4F8699" stroke="#DAD6CA"/>
<rect x="263.5" y="0.5" width="29" height="29" rx="7.5" fill="#563444" stroke="#DAD6CA"/>
<rect x="263.5" y="100.5" width="29" height="29" rx="7.5" fill="#76B947" stroke="#DAD6CA"/>
<rect x="263.5" y="135.5" width="29" height="29" rx="7.5" fill="#457146" stroke="#DAD6CA"/>
<rect x="293.5" y="65.5" width="29" height="29" rx="7.5" fill="#76B947" stroke="#DAD6CA"/>
<rect x="293.5" y="30.5" width="29" height="29" rx="7.5" fill="#4F8699" stroke="#DAD6CA"/>
<rect x="293.5" y="0.5" width="29" height="29" rx="7.5" fill="#563444" stroke="#DAD6CA"/>
<rect x="293.5" y="100.5" width="29" height="29" rx="7.5" fill="#457146" stroke="#DAD6CA"/>
<rect x="293.5" y="135.5" width="29" height="29" rx="7.5" fill="#76B947" stroke="#DAD6CA"/>
<rect x="323.5" y="65.5" width="29" height="29" rx="7.5" fill="white" stroke="#DAD6CA"/>
<rect x="353.5" y="65.5" width="29" height="29" rx="7.5" fill="white" stroke="#DAD6CA"/>
<rect x="323.5" y="30.5" width="29" height="29" rx="7.5" fill="#4F8699" stroke="#DAD6CA"/>
<rect x="353.5" y="30.5" width="29" height="29" rx="7.5" fill="#4F8699" stroke="#DAD6CA"/>
<rect x="323.5" y="0.5" width="29" height="29" rx="7.5" fill="#563444" stroke="#DAD6CA"/>
<rect x="353.5" y="0.5" width="29" height="29" rx="7.5" fill="#563444" stroke="#DAD6CA"/>
<rect x="323.5" y="100.5" width="29" height="29" rx="7.5" fill="#E69E4C" stroke="#DAD6CA"/>
<rect x="353.5" y="100.5" width="29" height="29" rx="7.5" fill="white" stroke="#DAD6CA"/>
<rect x="323.5" y="135.5" width="29" height="29" rx="7.5" fill="white" stroke="#DAD6CA"/>
<rect x="353.5" y="135.5" width="29" height="29" rx="7.5" fill="#A6D886" stroke="#DAD6CA"/>
<path d="M188.54 22C188.407 22 188.287 21.9533 188.18 21.86C188.087 21.7667 188.04 21.6467 188.04 21.5V11.98L185.3 14.08C185.18 14.1733 185.053 14.2067 184.92 14.18C184.8 14.1533 184.693 14.08 184.6 13.96L183.42 12.42C183.34 12.3 183.307 12.1733 183.32 12.04C183.347 11.8933 183.427 11.78 183.56 11.7L188.16 8.14C188.24 8.08667 188.313 8.05333 188.38 8.04C188.46 8.01333 188.547 8 188.64 8H191.14C191.273 8 191.387 8.04667 191.48 8.14C191.587 8.23333 191.64 8.35333 191.64 8.5V21.5C191.64 21.6467 191.587 21.7667 191.48 21.86C191.387 21.9533 191.273 22 191.14 22H188.54Z" fill="#DAD6CA"/>
<path d="M184.9 52C184.753 52 184.633 51.9533 184.54 51.86C184.447 51.7667 184.4 51.6467 184.4 51.5V38.5C184.4 38.3533 184.447 38.2333 184.54 38.14C184.633 38.0467 184.753 38 184.9 38H187.54C187.673 38 187.787 38.0467 187.88 38.14C187.987 38.2333 188.04 38.3533 188.04 38.5V48.98H194.08C194.227 48.98 194.347 49.0333 194.44 49.14C194.547 49.2333 194.6 49.3533 194.6 49.5V51.5C194.6 51.6467 194.547 51.7667 194.44 51.86C194.347 51.9533 194.227 52 194.08 52H184.9Z" fill="#DAD6CA"/>
<path d="M2.9 87C2.75333 87 2.63333 86.9533 2.54 86.86C2.44667 86.7667 2.4 86.6467 2.4 86.5V73.5C2.4 73.3533 2.44667 73.2333 2.54 73.14C2.63333 73.0467 2.75333 73 2.9 73H12.24C12.3867 73 12.5067 73.0467 12.6 73.14C12.6933 73.2333 12.74 73.3533 12.74 73.5V75.38C12.74 75.5267 12.6933 75.6467 12.6 75.74C12.5067 75.8333 12.3867 75.88 12.24 75.88H5.86V78.58H11.8C11.9467 78.58 12.0667 78.6333 12.16 78.74C12.2533 78.8333 12.3 78.9533 12.3 79.1V80.84C12.3 80.9733 12.2533 81.0933 12.16 81.2C12.0667 81.2933 11.9467 81.34 11.8 81.34H5.86V84.12H12.4C12.5467 84.12 12.6667 84.1667 12.76 84.26C12.8533 84.3533 12.9 84.4733 12.9 84.62V86.5C12.9 86.6467 12.8533 86.7667 12.76 86.86C12.6667 86.9533 12.5467 87 12.4 87H2.9ZM15.2534 87C15.1068 87 14.9868 86.9533 14.8934 86.86C14.8001 86.7667 14.7534 86.6467 14.7534 86.5V77.1C14.7534 76.9533 14.8001 76.8333 14.8934 76.74C14.9868 76.6467 15.1068 76.6 15.2534 76.6H17.5534C17.7001 76.6 17.8201 76.6467 17.9134 76.74C18.0068 76.8333 18.0534 76.9533 18.0534 77.1V77.86C18.4001 77.4467 18.8534 77.1 19.4134 76.82C19.9734 76.54 20.6334 76.4 21.3934 76.4C22.1668 76.4 22.8468 76.5733 23.4334 76.92C24.0334 77.2667 24.5001 77.78 24.8334 78.46C25.1801 79.1267 25.3534 79.9467 25.3534 80.92V86.5C25.3534 86.6467 25.3001 86.7667 25.1934 86.86C25.1001 86.9533 24.9868 87 24.8534 87H22.3334C22.2001 87 22.0801 86.9533 21.9734 86.86C21.8801 86.7667 21.8334 86.6467 21.8334 86.5V81.04C21.8334 80.4133 21.6801 79.9333 21.3734 79.6C21.0801 79.2533 20.6401 79.08 20.0534 79.08C19.5068 79.08 19.0668 79.2533 18.7334 79.6C18.4134 79.9333 18.2534 80.4133 18.2534 81.04V86.5C18.2534 86.6467 18.2001 86.7667 18.0934 86.86C18.0001 86.9533 17.8868 87 17.7534 87H15.2534ZM32.6078 87C31.7545 87 31.0145 86.8667 30.3878 86.6C29.7745 86.32 29.3011 85.8933 28.9678 85.32C28.6345 84.7333 28.4678 83.98 28.4678 83.06V79.22H26.9078C26.7611 79.22 26.6345 79.1733 26.5278 79.08C26.4345 78.9867 26.3878 78.8667 26.3878 78.72V77.1C26.3878 76.9533 26.4345 76.8333 26.5278 76.74C26.6345 76.6467 26.7611 76.6 26.9078 76.6H28.4678V73.3C28.4678 73.1533 28.5145 73.0333 28.6078 72.94C28.7145 72.8467 28.8345 72.8 28.9678 72.8H31.2878C31.4345 72.8 31.5545 72.8467 31.6478 72.94C31.7411 73.0333 31.7878 73.1533 31.7878 73.3V76.6H34.2878C34.4345 76.6 34.5545 76.6467 34.6478 76.74C34.7411 76.8333 34.7878 76.9533 34.7878 77.1V78.72C34.7878 78.8667 34.7411 78.9867 34.6478 79.08C34.5545 79.1733 34.4345 79.22 34.2878 79.22H31.7878V82.78C31.7878 83.2333 31.8745 83.5933 32.0478 83.86C32.2211 84.1267 32.5145 84.26 32.9278 84.26H34.4678C34.6145 84.26 34.7345 84.3067 34.8278 84.4C34.9211 84.4933 34.9678 84.6133 34.9678 84.76V86.5C34.9678 86.6467 34.9211 86.7667 34.8278 86.86C34.7345 86.9533 34.6145 87 34.4678 87H32.6078ZM36.9238 87C36.7771 87 36.6571 86.9533 36.5638 86.86C36.4704 86.7667 36.4238 86.6467 36.4238 86.5V77.1C36.4238 76.9667 36.4704 76.8533 36.5638 76.76C36.6571 76.6533 36.7771 76.6 36.9238 76.6H39.2238C39.3704 76.6 39.4904 76.6533 39.5838 76.76C39.6771 76.8533 39.7238 76.9667 39.7238 77.1V77.9C40.0838 77.4867 40.5104 77.1667 41.0038 76.94C41.5104 76.7133 42.0771 76.6 42.7038 76.6H43.5838C43.7171 76.6 43.8304 76.6467 43.9238 76.74C44.0304 76.8333 44.0838 76.9533 44.0838 77.1V79.16C44.0838 79.2933 44.0304 79.4133 43.9238 79.52C43.8304 79.6133 43.7171 79.66 43.5838 79.66H41.6438C41.0971 79.66 40.6704 79.8133 40.3638 80.12C40.0704 80.4133 39.9238 80.8333 39.9238 81.38V86.5C39.9238 86.6467 39.8704 86.7667 39.7638 86.86C39.6704 86.9533 39.5504 87 39.4038 87H36.9238ZM50.0277 87.2C48.4543 87.2 47.201 86.7733 46.2677 85.92C45.3343 85.0667 44.8477 83.8 44.8077 82.12C44.8077 82.0267 44.8077 81.9067 44.8077 81.76C44.8077 81.6133 44.8077 81.5 44.8077 81.42C44.8477 80.3667 45.081 79.4667 45.5077 78.72C45.9477 77.96 46.5477 77.3867 47.3077 77C48.081 76.6 48.981 76.4 50.0077 76.4C51.181 76.4 52.1477 76.6333 52.9077 77.1C53.681 77.5667 54.261 78.2 54.6477 79C55.0343 79.8 55.2277 80.7133 55.2277 81.74V82.22C55.2277 82.3667 55.1743 82.4867 55.0677 82.58C54.9743 82.6733 54.861 82.72 54.7277 82.72H48.3277C48.3277 82.7333 48.3277 82.7533 48.3277 82.78C48.3277 82.8067 48.3277 82.8333 48.3277 82.86C48.341 83.2467 48.4077 83.6 48.5277 83.92C48.6477 84.24 48.8343 84.4933 49.0877 84.68C49.341 84.8667 49.6477 84.96 50.0077 84.96C50.2743 84.96 50.4943 84.92 50.6677 84.84C50.8543 84.7467 51.0077 84.6467 51.1277 84.54C51.2477 84.42 51.341 84.32 51.4077 84.24C51.5277 84.1067 51.621 84.0267 51.6877 84C51.7677 83.96 51.8877 83.94 52.0477 83.94H54.5277C54.661 83.94 54.7677 83.98 54.8477 84.06C54.941 84.1267 54.981 84.2267 54.9677 84.36C54.9543 84.5867 54.841 84.86 54.6277 85.18C54.4143 85.5 54.101 85.82 53.6877 86.14C53.2877 86.4467 52.781 86.7 52.1677 86.9C51.5543 87.1 50.841 87.2 50.0277 87.2ZM48.3277 80.74H51.7077V80.7C51.7077 80.2733 51.641 79.9 51.5077 79.58C51.3877 79.26 51.1943 79.0133 50.9277 78.84C50.6743 78.6667 50.3677 78.58 50.0077 78.58C49.6477 78.58 49.341 78.6667 49.0877 78.84C48.8477 79.0133 48.661 79.26 48.5277 79.58C48.3943 79.9 48.3277 80.2733 48.3277 80.7V80.74ZM57.4027 87C57.256 87 57.136 86.9533 57.0427 86.86C56.9493 86.7667 56.9027 86.6467 56.9027 86.5V77.1C56.9027 76.9533 56.9493 76.8333 57.0427 76.74C57.136 76.6467 57.256 76.6 57.4027 76.6H59.7027C59.8493 76.6 59.9693 76.6467 60.0627 76.74C60.156 76.8333 60.2027 76.9533 60.2027 77.1V77.86C60.5493 77.4467 61.0027 77.1 61.5627 76.82C62.1227 76.54 62.7827 76.4 63.5427 76.4C64.316 76.4 64.996 76.5733 65.5827 76.92C66.1827 77.2667 66.6493 77.78 66.9827 78.46C67.3293 79.1267 67.5027 79.9467 67.5027 80.92V86.5C67.5027 86.6467 67.4493 86.7667 67.3427 86.86C67.2493 86.9533 67.136 87 67.0027 87H64.4827C64.3493 87 64.2293 86.9533 64.1227 86.86C64.0293 86.7667 63.9827 86.6467 63.9827 86.5V81.04C63.9827 80.4133 63.8293 79.9333 63.5227 79.6C63.2293 79.2533 62.7893 79.08 62.2027 79.08C61.656 79.08 61.216 79.2533 60.8827 79.6C60.5627 79.9333 60.4027 80.4133 60.4027 81.04V86.5C60.4027 86.6467 60.3493 86.7667 60.2427 86.86C60.1493 86.9533 60.036 87 59.9027 87H57.4027ZM72.6547 87.2C71.9347 87.2 71.288 87.0667 70.7147 86.8C70.1547 86.52 69.708 86.1467 69.3747 85.68C69.0414 85.2133 68.8747 84.6867 68.8747 84.1C68.8747 83.1533 69.2614 82.4067 70.0347 81.86C70.808 81.3 71.8347 80.92 73.1147 80.72L75.6147 80.34V80.06C75.6147 79.58 75.5147 79.2133 75.3147 78.96C75.1147 78.7067 74.748 78.58 74.2147 78.58C73.8414 78.58 73.5347 78.6533 73.2947 78.8C73.068 78.9467 72.888 79.1467 72.7547 79.4C72.6347 79.5733 72.468 79.66 72.2547 79.66H70.0147C69.868 79.66 69.7547 79.62 69.6747 79.54C69.5947 79.4467 69.5614 79.34 69.5747 79.22C69.5747 78.98 69.6614 78.7067 69.8347 78.4C70.0214 78.08 70.3014 77.7667 70.6747 77.46C71.048 77.1533 71.528 76.9 72.1147 76.7C72.7014 76.5 73.408 76.4 74.2347 76.4C75.1014 76.4 75.8414 76.5 76.4547 76.7C77.068 76.9 77.5614 77.18 77.9347 77.54C78.3214 77.9 78.608 78.3267 78.7947 78.82C78.9814 79.3 79.0747 79.8333 79.0747 80.42V86.5C79.0747 86.6467 79.0214 86.7667 78.9147 86.86C78.8214 86.9533 78.708 87 78.5747 87H76.2547C76.108 87 75.988 86.9533 75.8947 86.86C75.8014 86.7667 75.7547 86.6467 75.7547 86.5V85.8C75.5814 86.0533 75.348 86.2867 75.0547 86.5C74.7614 86.7133 74.4147 86.88 74.0147 87C73.628 87.1333 73.1747 87.2 72.6547 87.2ZM73.5947 84.92C73.9814 84.92 74.328 84.84 74.6347 84.68C74.9547 84.5067 75.2014 84.2467 75.3747 83.9C75.5614 83.54 75.6547 83.0933 75.6547 82.56V82.28L73.9547 82.58C73.328 82.6867 72.868 82.8533 72.5747 83.08C72.2947 83.2933 72.1547 83.5467 72.1547 83.84C72.1547 84.0667 72.2214 84.26 72.3547 84.42C72.488 84.58 72.6614 84.7067 72.8747 84.8C73.088 84.88 73.328 84.92 73.5947 84.92ZM81.6316 87C81.4849 87 81.3649 86.9533 81.2716 86.86C81.1782 86.7667 81.1316 86.6467 81.1316 86.5V77.1C81.1316 76.9533 81.1782 76.8333 81.2716 76.74C81.3649 76.6467 81.4849 76.6 81.6316 76.6H83.8116C83.9582 76.6 84.0782 76.6467 84.1716 76.74C84.2649 76.8333 84.3116 76.9533 84.3116 77.1V77.78C84.5782 77.42 84.9516 77.1067 85.4316 76.84C85.9116 76.56 86.4782 76.4133 87.1316 76.4C88.6649 76.3733 89.7182 76.9533 90.2916 78.14C90.5982 77.6333 91.0382 77.22 91.6116 76.9C92.1849 76.5667 92.8116 76.4 93.4916 76.4C94.1849 76.4 94.8049 76.56 95.3516 76.88C95.9116 77.1867 96.3582 77.6667 96.6916 78.32C97.0249 78.96 97.1916 79.7933 97.1916 80.82V86.5C97.1916 86.6467 97.1382 86.7667 97.0316 86.86C96.9382 86.9533 96.8249 87 96.6916 87H94.3716C94.2249 87 94.0982 86.9533 93.9916 86.86C93.8982 86.7667 93.8516 86.6467 93.8516 86.5V80.96C93.8516 80.4933 93.7849 80.1267 93.6516 79.86C93.5182 79.58 93.3382 79.38 93.1116 79.26C92.8849 79.14 92.6249 79.08 92.3316 79.08C92.0916 79.08 91.8516 79.14 91.6116 79.26C91.3849 79.38 91.1982 79.58 91.0516 79.86C90.9182 80.1267 90.8516 80.4933 90.8516 80.96V86.5C90.8516 86.6467 90.8049 86.7667 90.7116 86.86C90.6182 86.9533 90.4982 87 90.3516 87H88.0316C87.8849 87 87.7649 86.9533 87.6716 86.86C87.5782 86.7667 87.5316 86.6467 87.5316 86.5V80.96C87.5316 80.4933 87.4582 80.1267 87.3116 79.86C87.1649 79.58 86.9782 79.38 86.7516 79.26C86.5249 79.14 86.2716 79.08 85.9916 79.08C85.7516 79.08 85.5116 79.14 85.2716 79.26C85.0449 79.38 84.8582 79.58 84.7116 79.86C84.5782 80.1267 84.5116 80.4867 84.5116 80.94V86.5C84.5116 86.6467 84.4582 86.7667 84.3516 86.86C84.2582 86.9533 84.1382 87 83.9916 87H81.6316ZM99.7323 87C99.5857 87 99.4657 86.9533 99.3723 86.86C99.279 86.7667 99.2323 86.6467 99.2323 86.5V77.1C99.2323 76.9533 99.279 76.8333 99.3723 76.74C99.4657 76.6467 99.5857 76.6 99.7323 76.6H102.092C102.226 76.6 102.339 76.6467 102.432 76.74C102.539 76.8333 102.592 76.9533 102.592 77.1V86.5C102.592 86.6467 102.539 86.7667 102.432 86.86C102.339 86.9533 102.226 87 102.092 87H99.7323ZM99.7123 75.1C99.5657 75.1 99.4457 75.0533 99.3523 74.96C99.259 74.8667 99.2123 74.7467 99.2123 74.6V72.82C99.2123 72.6733 99.259 72.5533 99.3523 72.46C99.4457 72.3533 99.5657 72.3 99.7123 72.3H102.092C102.239 72.3 102.359 72.3533 102.452 72.46C102.559 72.5533 102.612 72.6733 102.612 72.82V74.6C102.612 74.7467 102.559 74.8667 102.452 74.96C102.359 75.0533 102.239 75.1 102.092 75.1H99.7123ZM109.633 87.2C108.06 87.2 106.806 86.7733 105.873 85.92C104.94 85.0667 104.453 83.8 104.413 82.12C104.413 82.0267 104.413 81.9067 104.413 81.76C104.413 81.6133 104.413 81.5 104.413 81.42C104.453 80.3667 104.686 79.4667 105.113 78.72C105.553 77.96 106.153 77.3867 106.913 77C107.686 76.6 108.586 76.4 109.613 76.4C110.786 76.4 111.753 76.6333 112.513 77.1C113.286 77.5667 113.866 78.2 114.253 79C114.64 79.8 114.833 80.7133 114.833 81.74V82.22C114.833 82.3667 114.78 82.4867 114.673 82.58C114.58 82.6733 114.466 82.72 114.333 82.72H107.933C107.933 82.7333 107.933 82.7533 107.933 82.78C107.933 82.8067 107.933 82.8333 107.933 82.86C107.946 83.2467 108.013 83.6 108.133 83.92C108.253 84.24 108.44 84.4933 108.693 84.68C108.946 84.8667 109.253 84.96 109.613 84.96C109.88 84.96 110.1 84.92 110.273 84.84C110.46 84.7467 110.613 84.6467 110.733 84.54C110.853 84.42 110.946 84.32 111.013 84.24C111.133 84.1067 111.226 84.0267 111.293 84C111.373 83.96 111.493 83.94 111.653 83.94H114.133C114.266 83.94 114.373 83.98 114.453 84.06C114.546 84.1267 114.586 84.2267 114.573 84.36C114.56 84.5867 114.446 84.86 114.233 85.18C114.02 85.5 113.706 85.82 113.293 86.14C112.893 86.4467 112.386 86.7 111.773 86.9C111.16 87.1 110.446 87.2 109.633 87.2ZM107.933 80.74H111.313V80.7C111.313 80.2733 111.246 79.9 111.113 79.58C110.993 79.26 110.8 79.0133 110.533 78.84C110.28 78.6667 109.973 78.58 109.613 78.58C109.253 78.58 108.946 78.6667 108.693 78.84C108.453 79.0133 108.266 79.26 108.133 79.58C108 79.9 107.933 80.2733 107.933 80.7V80.74ZM117.008 87C116.861 87 116.741 86.9533 116.648 86.86C116.555 86.7667 116.508 86.6467 116.508 86.5V77.1C116.508 76.9533 116.555 76.8333 116.648 76.74C116.741 76.6467 116.861 76.6 117.008 76.6H119.308C119.455 76.6 119.575 76.6467 119.668 76.74C119.761 76.8333 119.808 76.9533 119.808 77.1V77.86C120.155 77.4467 120.608 77.1 121.168 76.82C121.728 76.54 122.388 76.4 123.148 76.4C123.921 76.4 124.601 76.5733 125.188 76.92C125.788 77.2667 126.255 77.78 126.588 78.46C126.935 79.1267 127.108 79.9467 127.108 80.92V86.5C127.108 86.6467 127.055 86.7667 126.948 86.86C126.855 86.9533 126.741 87 126.608 87H124.088C123.955 87 123.835 86.9533 123.728 86.86C123.635 86.7667 123.588 86.6467 123.588 86.5V81.04C123.588 80.4133 123.435 79.9333 123.128 79.6C122.835 79.2533 122.395 79.08 121.808 79.08C121.261 79.08 120.821 79.2533 120.488 79.6C120.168 79.9333 120.008 80.4133 120.008 81.04V86.5C120.008 86.6467 119.955 86.7667 119.848 86.86C119.755 86.9533 119.641 87 119.508 87H117.008ZM134.363 87C133.509 87 132.769 86.8667 132.143 86.6C131.529 86.32 131.056 85.8933 130.723 85.32C130.389 84.7333 130.223 83.98 130.223 83.06V79.22H128.663C128.516 79.22 128.389 79.1733 128.283 79.08C128.189 78.9867 128.143 78.8667 128.143 78.72V77.1C128.143 76.9533 128.189 76.8333 128.283 76.74C128.389 76.6467 128.516 76.6 128.663 76.6H130.223V73.3C130.223 73.1533 130.269 73.0333 130.363 72.94C130.469 72.8467 130.589 72.8 130.723 72.8H133.043C133.189 72.8 133.309 72.8467 133.403 72.94C133.496 73.0333 133.543 73.1533 133.543 73.3V76.6H136.043C136.189 76.6 136.309 76.6467 136.403 76.74C136.496 76.8333 136.543 76.9533 136.543 77.1V78.72C136.543 78.8667 136.496 78.9867 136.403 79.08C136.309 79.1733 136.189 79.22 136.043 79.22H133.543V82.78C133.543 83.2333 133.629 83.5933 133.803 83.86C133.976 84.1267 134.269 84.26 134.683 84.26H136.223C136.369 84.26 136.489 84.3067 136.583 84.4C136.676 84.4933 136.723 84.6133 136.723 84.76V86.5C136.723 86.6467 136.676 86.7667 136.583 86.86C136.489 86.9533 136.369 87 136.223 87H134.363ZM143.098 87.2C141.978 87.2 141.032 87.02 140.258 86.66C139.498 86.3 138.912 85.7867 138.498 85.12C138.098 84.44 137.872 83.6333 137.818 82.7C137.805 82.4333 137.798 82.1333 137.798 81.8C137.798 81.4533 137.805 81.1533 137.818 80.9C137.872 79.9533 138.112 79.1467 138.538 78.48C138.965 77.8133 139.558 77.3 140.318 76.94C141.092 76.58 142.018 76.4 143.098 76.4C144.192 76.4 145.118 76.58 145.878 76.94C146.652 77.3 147.252 77.8133 147.678 78.48C148.105 79.1467 148.345 79.9533 148.398 80.9C148.412 81.1533 148.418 81.4533 148.418 81.8C148.418 82.1333 148.412 82.4333 148.398 82.7C148.345 83.6333 148.112 84.44 147.698 85.12C147.298 85.7867 146.712 86.3 145.938 86.66C145.178 87.02 144.232 87.2 143.098 87.2ZM143.098 84.76C143.698 84.76 144.132 84.58 144.398 84.22C144.678 83.86 144.838 83.32 144.878 82.6C144.892 82.4 144.898 82.1333 144.898 81.8C144.898 81.4667 144.892 81.2 144.878 81C144.838 80.2933 144.678 79.76 144.398 79.4C144.132 79.0267 143.698 78.84 143.098 78.84C142.512 78.84 142.078 79.0267 141.798 79.4C141.518 79.76 141.365 80.2933 141.338 81C141.325 81.2 141.318 81.4667 141.318 81.8C141.318 82.1333 141.325 82.4 141.338 82.6C141.365 83.32 141.518 83.86 141.798 84.22C142.078 84.58 142.512 84.76 143.098 84.76Z" fill="#4F8699"/>
<path d="M7.26 122.2C6.06 122.2 5.00667 122.007 4.1 121.62C3.20667 121.22 2.51333 120.613 2.02 119.8C1.52667 118.973 1.28 117.927 1.28 116.66V108.5C1.28 108.353 1.32667 108.233 1.42 108.14C1.51333 108.047 1.63333 108 1.78 108H4.36C4.50667 108 4.62667 108.047 4.72 108.14C4.81333 108.233 4.86 108.353 4.86 108.5V116.64C4.86 117.507 5.06667 118.16 5.48 118.6C5.90667 119.027 6.5 119.24 7.26 119.24C8.00667 119.24 8.58667 119.027 9 118.6C9.42667 118.16 9.64 117.507 9.64 116.64V108.5C9.64 108.353 9.68667 108.233 9.78 108.14C9.88667 108.047 10.0067 108 10.14 108H12.74C12.8733 108 12.9867 108.047 13.08 108.14C13.1867 108.233 13.24 108.353 13.24 108.5V116.66C13.24 117.927 12.9933 118.973 12.5 119.8C12.0067 120.613 11.3133 121.22 10.42 121.62C9.52667 122.007 8.47333 122.2 7.26 122.2ZM15.9722 122C15.8255 122 15.7055 121.953 15.6122 121.86C15.5189 121.767 15.4722 121.647 15.4722 121.5V112.1C15.4722 111.953 15.5189 111.833 15.6122 111.74C15.7055 111.647 15.8255 111.6 15.9722 111.6H18.2722C18.4189 111.6 18.5389 111.647 18.6322 111.74C18.7255 111.833 18.7722 111.953 18.7722 112.1V112.86C19.1189 112.447 19.5722 112.1 20.1322 111.82C20.6922 111.54 21.3522 111.4 22.1122 111.4C22.8855 111.4 23.5655 111.573 24.1522 111.92C24.7522 112.267 25.2189 112.78 25.5522 113.46C25.8989 114.127 26.0722 114.947 26.0722 115.92V121.5C26.0722 121.647 26.0189 121.767 25.9122 121.86C25.8189 121.953 25.7055 122 25.5722 122H23.0522C22.9189 122 22.7989 121.953 22.6922 121.86C22.5989 121.767 22.5522 121.647 22.5522 121.5V116.04C22.5522 115.413 22.3989 114.933 22.0922 114.6C21.7989 114.253 21.3589 114.08 20.7722 114.08C20.2255 114.08 19.7855 114.253 19.4522 114.6C19.1322 114.933 18.9722 115.413 18.9722 116.04V121.5C18.9722 121.647 18.9189 121.767 18.8122 121.86C18.7189 121.953 18.6055 122 18.4722 122H15.9722ZM28.6042 122C28.4576 122 28.3376 121.953 28.2442 121.86C28.1509 121.767 28.1042 121.647 28.1042 121.5V112.1C28.1042 111.953 28.1509 111.833 28.2442 111.74C28.3376 111.647 28.4576 111.6 28.6042 111.6H30.9642C31.0976 111.6 31.2109 111.647 31.3042 111.74C31.4109 111.833 31.4642 111.953 31.4642 112.1V121.5C31.4642 121.647 31.4109 121.767 31.3042 121.86C31.2109 121.953 31.0976 122 30.9642 122H28.6042ZM28.5842 110.1C28.4376 110.1 28.3176 110.053 28.2242 109.96C28.1309 109.867 28.0842 109.747 28.0842 109.6V107.82C28.0842 107.673 28.1309 107.553 28.2242 107.46C28.3176 107.353 28.4376 107.3 28.5842 107.3H30.9642C31.1109 107.3 31.2309 107.353 31.3242 107.46C31.4309 107.553 31.4842 107.673 31.4842 107.82V109.6C31.4842 109.747 31.4309 109.867 31.3242 109.96C31.2309 110.053 31.1109 110.1 30.9642 110.1H28.5842ZM37.3073 122C37.1073 122 36.9607 121.953 36.8673 121.86C36.774 121.753 36.694 121.633 36.6273 121.5L32.8473 112.22C32.8207 112.167 32.8073 112.107 32.8073 112.04C32.8073 111.92 32.8473 111.82 32.9273 111.74C33.0207 111.647 33.134 111.6 33.2673 111.6H35.5273C35.7007 111.6 35.834 111.647 35.9273 111.74C36.0207 111.833 36.0807 111.927 36.1073 112.02L38.3673 118.16L40.6473 112.02C40.674 111.927 40.734 111.833 40.8273 111.74C40.9207 111.647 41.054 111.6 41.2273 111.6H43.4873C43.6073 111.6 43.714 111.647 43.8073 111.74C43.9007 111.82 43.9473 111.92 43.9473 112.04C43.9473 112.107 43.934 112.167 43.9073 112.22L40.1273 121.5C40.074 121.633 39.994 121.753 39.8873 121.86C39.794 121.953 39.6407 122 39.4273 122H37.3073ZM49.7113 122.2C48.1379 122.2 46.8846 121.773 45.9513 120.92C45.0179 120.067 44.5313 118.8 44.4913 117.12C44.4913 117.027 44.4913 116.907 44.4913 116.76C44.4913 116.613 44.4913 116.5 44.4913 116.42C44.5313 115.367 44.7646 114.467 45.1913 113.72C45.6313 112.96 46.2313 112.387 46.9913 112C47.7646 111.6 48.6646 111.4 49.6913 111.4C50.8646 111.4 51.8313 111.633 52.5913 112.1C53.3646 112.567 53.9446 113.2 54.3313 114C54.7179 114.8 54.9113 115.713 54.9113 116.74V117.22C54.9113 117.367 54.8579 117.487 54.7513 117.58C54.6579 117.673 54.5446 117.72 54.4113 117.72H48.0113C48.0113 117.733 48.0113 117.753 48.0113 117.78C48.0113 117.807 48.0113 117.833 48.0113 117.86C48.0246 118.247 48.0913 118.6 48.2113 118.92C48.3313 119.24 48.5179 119.493 48.7713 119.68C49.0246 119.867 49.3313 119.96 49.6913 119.96C49.9579 119.96 50.1779 119.92 50.3513 119.84C50.5379 119.747 50.6913 119.647 50.8113 119.54C50.9313 119.42 51.0246 119.32 51.0913 119.24C51.2113 119.107 51.3046 119.027 51.3713 119C51.4513 118.96 51.5713 118.94 51.7313 118.94H54.2113C54.3446 118.94 54.4513 118.98 54.5313 119.06C54.6246 119.127 54.6646 119.227 54.6513 119.36C54.6379 119.587 54.5246 119.86 54.3113 120.18C54.0979 120.5 53.7846 120.82 53.3713 121.14C52.9713 121.447 52.4646 121.7 51.8513 121.9C51.2379 122.1 50.5246 122.2 49.7113 122.2ZM48.0113 115.74H51.3913V115.7C51.3913 115.273 51.3246 114.9 51.1913 114.58C51.0713 114.26 50.8779 114.013 50.6113 113.84C50.3579 113.667 50.0513 113.58 49.6913 113.58C49.3313 113.58 49.0246 113.667 48.7713 113.84C48.5313 114.013 48.3446 114.26 48.2113 114.58C48.0779 114.9 48.0113 115.273 48.0113 115.7V115.74ZM57.0863 122C56.9396 122 56.8196 121.953 56.7262 121.86C56.6329 121.767 56.5863 121.647 56.5863 121.5V112.1C56.5863 111.967 56.6329 111.853 56.7262 111.76C56.8196 111.653 56.9396 111.6 57.0863 111.6H59.3863C59.5329 111.6 59.6529 111.653 59.7463 111.76C59.8396 111.853 59.8863 111.967 59.8863 112.1V112.9C60.2463 112.487 60.6729 112.167 61.1663 111.94C61.6729 111.713 62.2396 111.6 62.8663 111.6H63.7463C63.8796 111.6 63.9929 111.647 64.0863 111.74C64.1929 111.833 64.2463 111.953 64.2463 112.1V114.16C64.2463 114.293 64.1929 114.413 64.0863 114.52C63.9929 114.613 63.8796 114.66 63.7463 114.66H61.8063C61.2596 114.66 60.8329 114.813 60.5263 115.12C60.2329 115.413 60.0863 115.833 60.0863 116.38V121.5C60.0863 121.647 60.0329 121.767 59.9263 121.86C59.8329 121.953 59.7129 122 59.5663 122H57.0863ZM69.7483 122.2C68.8816 122.2 68.1416 122.107 67.5283 121.92C66.9283 121.72 66.435 121.48 66.0483 121.2C65.675 120.92 65.395 120.633 65.2083 120.34C65.0216 120.033 64.9216 119.773 64.9083 119.56C64.895 119.413 64.9416 119.293 65.0483 119.2C65.155 119.093 65.2683 119.04 65.3883 119.04H67.6683C67.7083 119.04 67.7416 119.047 67.7683 119.06C67.795 119.073 67.835 119.1 67.8883 119.14C68.0616 119.233 68.235 119.353 68.4083 119.5C68.5816 119.633 68.7816 119.753 69.0083 119.86C69.235 119.967 69.5083 120.02 69.8283 120.02C70.2016 120.02 70.515 119.947 70.7683 119.8C71.0216 119.653 71.1483 119.433 71.1483 119.14C71.1483 118.927 71.0883 118.753 70.9683 118.62C70.8483 118.473 70.6016 118.333 70.2283 118.2C69.8683 118.067 69.3216 117.933 68.5883 117.8C67.895 117.64 67.2883 117.433 66.7683 117.18C66.2483 116.913 65.8483 116.573 65.5683 116.16C65.2883 115.733 65.1483 115.22 65.1483 114.62C65.1483 114.087 65.3216 113.573 65.6683 113.08C66.015 112.587 66.5216 112.187 67.1883 111.88C67.855 111.56 68.675 111.4 69.6483 111.4C70.4216 111.4 71.0883 111.493 71.6483 111.68C72.2216 111.853 72.7016 112.08 73.0883 112.36C73.4883 112.64 73.7883 112.927 73.9883 113.22C74.1883 113.513 74.295 113.78 74.3083 114.02C74.3216 114.153 74.2816 114.273 74.1883 114.38C74.095 114.473 73.9883 114.52 73.8683 114.52H71.7883C71.735 114.52 71.6816 114.513 71.6283 114.5C71.575 114.473 71.5283 114.447 71.4883 114.42C71.3283 114.34 71.1683 114.233 71.0083 114.1C70.8483 113.967 70.6616 113.847 70.4483 113.74C70.235 113.633 69.9683 113.58 69.6483 113.58C69.2883 113.58 69.0083 113.66 68.8083 113.82C68.6083 113.98 68.5083 114.187 68.5083 114.44C68.5083 114.613 68.5616 114.773 68.6683 114.92C68.7883 115.067 69.0216 115.2 69.3683 115.32C69.7283 115.44 70.2816 115.573 71.0283 115.72C71.9483 115.867 72.6816 116.107 73.2283 116.44C73.775 116.76 74.1616 117.14 74.3883 117.58C74.615 118.007 74.7283 118.46 74.7283 118.94C74.7283 119.58 74.535 120.147 74.1483 120.64C73.775 121.133 73.215 121.52 72.4683 121.8C71.7216 122.067 70.815 122.2 69.7483 122.2ZM76.823 122C76.6763 122 76.5563 121.953 76.463 121.86C76.3696 121.767 76.323 121.647 76.323 121.5V112.1C76.323 111.953 76.3696 111.833 76.463 111.74C76.5563 111.647 76.6763 111.6 76.823 111.6H79.183C79.3163 111.6 79.4296 111.647 79.523 111.74C79.6296 111.833 79.683 111.953 79.683 112.1V121.5C79.683 121.647 79.6296 121.767 79.523 121.86C79.4296 121.953 79.3163 122 79.183 122H76.823ZM76.803 110.1C76.6563 110.1 76.5363 110.053 76.443 109.96C76.3496 109.867 76.303 109.747 76.303 109.6V107.82C76.303 107.673 76.3496 107.553 76.443 107.46C76.5363 107.353 76.6563 107.3 76.803 107.3H79.183C79.3296 107.3 79.4496 107.353 79.543 107.46C79.6496 107.553 79.703 107.673 79.703 107.82V109.6C79.703 109.747 79.6496 109.867 79.543 109.96C79.4496 110.053 79.3296 110.1 79.183 110.1H76.803ZM85.7061 122.2C85.0661 122.2 84.4861 122.1 83.9661 121.9C83.4594 121.687 83.0194 121.38 82.6461 120.98C82.2861 120.567 82.0061 120.073 81.8061 119.5C81.6061 118.913 81.4928 118.247 81.4661 117.5C81.4528 117.233 81.4461 117 81.4461 116.8C81.4461 116.587 81.4528 116.353 81.4661 116.1C81.4928 115.38 81.6061 114.733 81.8061 114.16C82.0061 113.587 82.2861 113.093 82.6461 112.68C83.0061 112.267 83.4461 111.953 83.9661 111.74C84.4861 111.513 85.0661 111.4 85.7061 111.4C86.3728 111.4 86.9461 111.513 87.4261 111.74C87.9061 111.953 88.3128 112.233 88.6461 112.58V108.3C88.6461 108.153 88.6928 108.033 88.7861 107.94C88.8794 107.847 88.9994 107.8 89.1461 107.8H91.5861C91.7194 107.8 91.8328 107.847 91.9261 107.94C92.0328 108.033 92.0861 108.153 92.0861 108.3V121.5C92.0861 121.647 92.0328 121.767 91.9261 121.86C91.8328 121.953 91.7194 122 91.5861 122H89.3261C89.1794 122 89.0594 121.953 88.9661 121.86C88.8728 121.767 88.8261 121.647 88.8261 121.5V120.86C88.5061 121.247 88.0928 121.567 87.5861 121.82C87.0794 122.073 86.4528 122.2 85.7061 122.2ZM86.7861 119.52C87.2394 119.52 87.5928 119.427 87.8461 119.24C88.1128 119.04 88.3061 118.787 88.4261 118.48C88.5594 118.173 88.6328 117.84 88.6461 117.48C88.6594 117.213 88.6661 116.96 88.6661 116.72C88.6661 116.48 88.6594 116.233 88.6461 115.98C88.6328 115.647 88.5594 115.34 88.4261 115.06C88.2928 114.767 88.0928 114.533 87.8261 114.36C87.5594 114.173 87.2128 114.08 86.7861 114.08C86.3461 114.08 85.9928 114.173 85.7261 114.36C85.4728 114.547 85.2928 114.8 85.1861 115.12C85.0794 115.44 85.0128 115.793 84.9861 116.18C84.9461 116.593 84.9461 117.007 84.9861 117.42C85.0128 117.807 85.0794 118.16 85.1861 118.48C85.2928 118.8 85.4728 119.053 85.7261 119.24C85.9928 119.427 86.3461 119.52 86.7861 119.52ZM97.3633 122.2C96.6433 122.2 95.9966 122.067 95.4233 121.8C94.8633 121.52 94.4166 121.147 94.0833 120.68C93.7499 120.213 93.5833 119.687 93.5833 119.1C93.5833 118.153 93.9699 117.407 94.7433 116.86C95.5166 116.3 96.5433 115.92 97.8233 115.72L100.323 115.34V115.06C100.323 114.58 100.223 114.213 100.023 113.96C99.8233 113.707 99.4566 113.58 98.9233 113.58C98.5499 113.58 98.2433 113.653 98.0033 113.8C97.7766 113.947 97.5966 114.147 97.4633 114.4C97.3433 114.573 97.1766 114.66 96.9633 114.66H94.7233C94.5766 114.66 94.4633 114.62 94.3833 114.54C94.3033 114.447 94.2699 114.34 94.2833 114.22C94.2833 113.98 94.3699 113.707 94.5433 113.4C94.7299 113.08 95.0099 112.767 95.3833 112.46C95.7566 112.153 96.2366 111.9 96.8233 111.7C97.4099 111.5 98.1166 111.4 98.9433 111.4C99.8099 111.4 100.55 111.5 101.163 111.7C101.777 111.9 102.27 112.18 102.643 112.54C103.03 112.9 103.317 113.327 103.503 113.82C103.69 114.3 103.783 114.833 103.783 115.42V121.5C103.783 121.647 103.73 121.767 103.623 121.86C103.53 121.953 103.417 122 103.283 122H100.963C100.817 122 100.697 121.953 100.603 121.86C100.51 121.767 100.463 121.647 100.463 121.5V120.8C100.29 121.053 100.057 121.287 99.7633 121.5C99.4699 121.713 99.1233 121.88 98.7233 122C98.3366 122.133 97.8833 122.2 97.3633 122.2ZM98.3033 119.92C98.6899 119.92 99.0366 119.84 99.3433 119.68C99.6633 119.507 99.9099 119.247 100.083 118.9C100.27 118.54 100.363 118.093 100.363 117.56V117.28L98.6633 117.58C98.0366 117.687 97.5766 117.853 97.2833 118.08C97.0033 118.293 96.8633 118.547 96.8633 118.84C96.8633 119.067 96.9299 119.26 97.0633 119.42C97.1966 119.58 97.3699 119.707 97.5833 119.8C97.7966 119.88 98.0366 119.92 98.3033 119.92ZM109.72 122.2C109.08 122.2 108.5 122.1 107.98 121.9C107.473 121.687 107.033 121.38 106.66 120.98C106.3 120.567 106.02 120.073 105.82 119.5C105.62 118.913 105.507 118.247 105.48 117.5C105.467 117.233 105.46 117 105.46 116.8C105.46 116.587 105.467 116.353 105.48 116.1C105.507 115.38 105.62 114.733 105.82 114.16C106.02 113.587 106.3 113.093 106.66 112.68C107.02 112.267 107.46 111.953 107.98 111.74C108.5 111.513 109.08 111.4 109.72 111.4C110.387 111.4 110.96 111.513 111.44 111.74C111.92 111.953 112.327 112.233 112.66 112.58V108.3C112.66 108.153 112.707 108.033 112.8 107.94C112.893 107.847 113.013 107.8 113.16 107.8H115.6C115.733 107.8 115.847 107.847 115.94 107.94C116.047 108.033 116.1 108.153 116.1 108.3V121.5C116.1 121.647 116.047 121.767 115.94 121.86C115.847 121.953 115.733 122 115.6 122H113.34C113.193 122 113.073 121.953 112.98 121.86C112.887 121.767 112.84 121.647 112.84 121.5V120.86C112.52 121.247 112.107 121.567 111.6 121.82C111.093 122.073 110.467 122.2 109.72 122.2ZM110.8 119.52C111.253 119.52 111.607 119.427 111.86 119.24C112.127 119.04 112.32 118.787 112.44 118.48C112.573 118.173 112.647 117.84 112.66 117.48C112.673 117.213 112.68 116.96 112.68 116.72C112.68 116.48 112.673 116.233 112.66 115.98C112.647 115.647 112.573 115.34 112.44 115.06C112.307 114.767 112.107 114.533 111.84 114.36C111.573 114.173 111.227 114.08 110.8 114.08C110.36 114.08 110.007 114.173 109.74 114.36C109.487 114.547 109.307 114.8 109.2 115.12C109.093 115.44 109.027 115.793 109 116.18C108.96 116.593 108.96 117.007 109 117.42C109.027 117.807 109.093 118.16 109.2 118.48C109.307 118.8 109.487 119.053 109.74 119.24C110.007 119.427 110.36 119.52 110.8 119.52Z" fill="#4F8699"/>
<path d="M6.4 157C6.17333 157 5.99333 156.94 5.86 156.82C5.72667 156.7 5.63333 156.56 5.58 156.4L1.5 143.6C1.47333 143.533 1.46 143.473 1.46 143.42C1.46 143.313 1.5 143.22 1.58 143.14C1.67333 143.047 1.78 143 1.9 143H4.38C4.59333 143 4.76 143.06 4.88 143.18C5 143.3 5.07333 143.413 5.1 143.52L7.92 152.76L10.76 143.52C10.8 143.413 10.8733 143.3 10.98 143.18C11.1 143.06 11.2667 143 11.48 143H13.96C14.08 143 14.18 143.047 14.26 143.14C14.3533 143.22 14.4 143.313 14.4 143.42C14.4 143.473 14.3867 143.533 14.36 143.6L10.28 156.4C10.2267 156.56 10.1333 156.7 10 156.82C9.88 156.94 9.7 157 9.46 157H6.4ZM16.0542 157C15.9076 157 15.7876 156.953 15.6942 156.86C15.6009 156.767 15.5542 156.647 15.5542 156.5V147.1C15.5542 146.953 15.6009 146.833 15.6942 146.74C15.7876 146.647 15.9076 146.6 16.0542 146.6H18.4142C18.5476 146.6 18.6609 146.647 18.7542 146.74C18.8609 146.833 18.9142 146.953 18.9142 147.1V156.5C18.9142 156.647 18.8609 156.767 18.7542 156.86C18.6609 156.953 18.5476 157 18.4142 157H16.0542ZM16.0342 145.1C15.8876 145.1 15.7676 145.053 15.6742 144.96C15.5809 144.867 15.5342 144.747 15.5342 144.6V142.82C15.5342 142.673 15.5809 142.553 15.6742 142.46C15.7676 142.353 15.8876 142.3 16.0342 142.3H18.4142C18.5609 142.3 18.6809 142.353 18.7742 142.46C18.8809 142.553 18.9342 142.673 18.9342 142.82V144.6C18.9342 144.747 18.8809 144.867 18.7742 144.96C18.6809 145.053 18.5609 145.1 18.4142 145.1H16.0342ZM24.1773 157.2C23.4573 157.2 22.8107 157.067 22.2373 156.8C21.6773 156.52 21.2307 156.147 20.8973 155.68C20.564 155.213 20.3973 154.687 20.3973 154.1C20.3973 153.153 20.784 152.407 21.5573 151.86C22.3307 151.3 23.3573 150.92 24.6373 150.72L27.1373 150.34V150.06C27.1373 149.58 27.0373 149.213 26.8373 148.96C26.6373 148.707 26.2707 148.58 25.7373 148.58C25.364 148.58 25.0573 148.653 24.8173 148.8C24.5907 148.947 24.4107 149.147 24.2773 149.4C24.1573 149.573 23.9907 149.66 23.7773 149.66H21.5373C21.3907 149.66 21.2773 149.62 21.1973 149.54C21.1173 149.447 21.084 149.34 21.0973 149.22C21.0973 148.98 21.184 148.707 21.3573 148.4C21.544 148.08 21.824 147.767 22.1973 147.46C22.5707 147.153 23.0507 146.9 23.6373 146.7C24.224 146.5 24.9307 146.4 25.7573 146.4C26.624 146.4 27.364 146.5 27.9773 146.7C28.5907 146.9 29.084 147.18 29.4573 147.54C29.844 147.9 30.1307 148.327 30.3173 148.82C30.504 149.3 30.5973 149.833 30.5973 150.42V156.5C30.5973 156.647 30.544 156.767 30.4373 156.86C30.344 156.953 30.2307 157 30.0973 157H27.7773C27.6307 157 27.5107 156.953 27.4173 156.86C27.324 156.767 27.2773 156.647 27.2773 156.5V155.8C27.104 156.053 26.8707 156.287 26.5773 156.5C26.284 156.713 25.9373 156.88 25.5373 157C25.1507 157.133 24.6973 157.2 24.1773 157.2ZM25.1173 154.92C25.504 154.92 25.8507 154.84 26.1573 154.68C26.4773 154.507 26.724 154.247 26.8973 153.9C27.084 153.54 27.1773 153.093 27.1773 152.56V152.28L25.4773 152.58C24.8507 152.687 24.3907 152.853 24.0973 153.08C23.8173 153.293 23.6773 153.547 23.6773 153.84C23.6773 154.067 23.744 154.26 23.8773 154.42C24.0107 154.58 24.184 154.707 24.3973 154.8C24.6107 154.88 24.8507 154.92 25.1173 154.92ZM31.5783 160.8C31.4316 160.8 31.3116 160.753 31.2183 160.66C31.1249 160.567 31.0783 160.447 31.0783 160.3V158.68C31.0783 158.533 31.1249 158.413 31.2183 158.32C31.3116 158.227 31.4316 158.18 31.5783 158.18H32.3183C32.6516 158.18 32.9049 158.113 33.0783 157.98C33.2516 157.86 33.3716 157.687 33.4383 157.46C33.5049 157.247 33.5383 157 33.5383 156.72V147.1C33.5383 146.953 33.5849 146.833 33.6783 146.74C33.7849 146.647 33.9049 146.6 34.0383 146.6H36.5183C36.6649 146.6 36.7849 146.647 36.8783 146.74C36.9716 146.833 37.0183 146.953 37.0183 147.1V156.8C37.0183 157.667 36.8449 158.393 36.4983 158.98C36.1649 159.58 35.6783 160.033 35.0383 160.34C34.3983 160.647 33.6183 160.8 32.6983 160.8H31.5783ZM34.0183 145.1C33.8849 145.1 33.7649 145.053 33.6583 144.96C33.5649 144.867 33.5183 144.747 33.5183 144.6V142.82C33.5183 142.673 33.5649 142.553 33.6583 142.46C33.7649 142.353 33.8849 142.3 34.0183 142.3H36.5383C36.6716 142.3 36.7849 142.353 36.8783 142.46C36.9849 142.553 37.0383 142.673 37.0383 142.82V144.6C37.0383 144.747 36.9849 144.867 36.8783 144.96C36.7849 145.053 36.6716 145.1 36.5383 145.1H34.0183ZM44.0706 157.2C42.4973 157.2 41.244 156.773 40.3106 155.92C39.3773 155.067 38.8906 153.8 38.8506 152.12C38.8506 152.027 38.8506 151.907 38.8506 151.76C38.8506 151.613 38.8506 151.5 38.8506 151.42C38.8906 150.367 39.124 149.467 39.5506 148.72C39.9906 147.96 40.5906 147.387 41.3506 147C42.124 146.6 43.024 146.4 44.0506 146.4C45.224 146.4 46.1906 146.633 46.9506 147.1C47.724 147.567 48.304 148.2 48.6906 149C49.0773 149.8 49.2706 150.713 49.2706 151.74V152.22C49.2706 152.367 49.2173 152.487 49.1106 152.58C49.0173 152.673 48.904 152.72 48.7706 152.72H42.3706C42.3706 152.733 42.3706 152.753 42.3706 152.78C42.3706 152.807 42.3706 152.833 42.3706 152.86C42.384 153.247 42.4506 153.6 42.5706 153.92C42.6906 154.24 42.8773 154.493 43.1306 154.68C43.384 154.867 43.6906 154.96 44.0506 154.96C44.3173 154.96 44.5373 154.92 44.7106 154.84C44.8973 154.747 45.0506 154.647 45.1706 154.54C45.2906 154.42 45.384 154.32 45.4506 154.24C45.5706 154.107 45.664 154.027 45.7306 154C45.8106 153.96 45.9306 153.94 46.0906 153.94H48.5706C48.704 153.94 48.8106 153.98 48.8906 154.06C48.984 154.127 49.024 154.227 49.0106 154.36C48.9973 154.587 48.884 154.86 48.6706 155.18C48.4573 155.5 48.144 155.82 47.7306 156.14C47.3306 156.447 46.824 156.7 46.2106 156.9C45.5973 157.1 44.884 157.2 44.0706 157.2ZM42.3706 150.74H45.7506V150.7C45.7506 150.273 45.684 149.9 45.5506 149.58C45.4306 149.26 45.2373 149.013 44.9706 148.84C44.7173 148.667 44.4106 148.58 44.0506 148.58C43.6906 148.58 43.384 148.667 43.1306 148.84C42.8906 149.013 42.704 149.26 42.5706 149.58C42.4373 149.9 42.3706 150.273 42.3706 150.7V150.74ZM55.2256 157.2C54.359 157.2 53.619 157.107 53.0056 156.92C52.4056 156.72 51.9123 156.48 51.5256 156.2C51.1523 155.92 50.8723 155.633 50.6856 155.34C50.499 155.033 50.399 154.773 50.3856 154.56C50.3723 154.413 50.419 154.293 50.5256 154.2C50.6323 154.093 50.7456 154.04 50.8656 154.04H53.1456C53.1856 154.04 53.219 154.047 53.2456 154.06C53.2723 154.073 53.3123 154.1 53.3656 154.14C53.539 154.233 53.7123 154.353 53.8856 154.5C54.059 154.633 54.259 154.753 54.4856 154.86C54.7123 154.967 54.9856 155.02 55.3056 155.02C55.679 155.02 55.9923 154.947 56.2456 154.8C56.499 154.653 56.6256 154.433 56.6256 154.14C56.6256 153.927 56.5656 153.753 56.4456 153.62C56.3256 153.473 56.079 153.333 55.7056 153.2C55.3456 153.067 54.799 152.933 54.0656 152.8C53.3723 152.64 52.7656 152.433 52.2456 152.18C51.7256 151.913 51.3256 151.573 51.0456 151.16C50.7656 150.733 50.6256 150.22 50.6256 149.62C50.6256 149.087 50.799 148.573 51.1456 148.08C51.4923 147.587 51.999 147.187 52.6656 146.88C53.3323 146.56 54.1523 146.4 55.1256 146.4C55.899 146.4 56.5656 146.493 57.1256 146.68C57.699 146.853 58.179 147.08 58.5656 147.36C58.9656 147.64 59.2656 147.927 59.4656 148.22C59.6656 148.513 59.7723 148.78 59.7856 149.02C59.799 149.153 59.759 149.273 59.6656 149.38C59.5723 149.473 59.4656 149.52 59.3456 149.52H57.2656C57.2123 149.52 57.159 149.513 57.1056 149.5C57.0523 149.473 57.0056 149.447 56.9656 149.42C56.8056 149.34 56.6456 149.233 56.4856 149.1C56.3256 148.967 56.139 148.847 55.9256 148.74C55.7123 148.633 55.4456 148.58 55.1256 148.58C54.7656 148.58 54.4856 148.66 54.2856 148.82C54.0856 148.98 53.9856 149.187 53.9856 149.44C53.9856 149.613 54.039 149.773 54.1456 149.92C54.2656 150.067 54.499 150.2 54.8456 150.32C55.2056 150.44 55.759 150.573 56.5056 150.72C57.4256 150.867 58.159 151.107 58.7056 151.44C59.2523 151.76 59.639 152.14 59.8656 152.58C60.0923 153.007 60.2056 153.46 60.2056 153.94C60.2056 154.58 60.0123 155.147 59.6256 155.64C59.2523 156.133 58.6923 156.52 57.9456 156.8C57.199 157.067 56.2923 157.2 55.2256 157.2Z" fill="#4F8699"/>
<path d="M212.34 22C212.193 22 212.067 21.9533 211.96 21.86C211.867 21.7667 211.82 21.6467 211.82 21.5V20.08C211.82 19.9867 211.847 19.8467 211.9 19.66C211.953 19.46 212.093 19.2733 212.32 19.1L214.4 17.06C215.467 16.2467 216.34 15.56 217.02 15C217.713 14.4267 218.227 13.92 218.56 13.48C218.893 13.04 219.06 12.6267 219.06 12.24C219.06 11.7867 218.94 11.4133 218.7 11.12C218.473 10.8133 218.073 10.66 217.5 10.66C217.113 10.66 216.787 10.7467 216.52 10.92C216.267 11.08 216.073 11.2933 215.94 11.56C215.807 11.8267 215.713 12.1 215.66 12.38C215.607 12.5533 215.513 12.6733 215.38 12.74C215.26 12.8067 215.127 12.84 214.98 12.84H212.48C212.36 12.84 212.26 12.8 212.18 12.72C212.1 12.64 212.06 12.54 212.06 12.42C212.073 11.78 212.207 11.18 212.46 10.62C212.727 10.06 213.093 9.56667 213.56 9.14C214.04 8.7 214.607 8.36 215.26 8.12C215.927 7.88 216.673 7.76 217.5 7.76C218.633 7.76 219.593 7.94 220.38 8.3C221.18 8.66 221.787 9.16667 222.2 9.82C222.613 10.46 222.82 11.2133 222.82 12.08C222.82 12.7333 222.673 13.3467 222.38 13.92C222.1 14.48 221.693 15.02 221.16 15.54C220.64 16.0467 220.02 16.5733 219.3 17.12L217.46 18.98H222.6C222.747 18.98 222.867 19.0267 222.96 19.12C223.067 19.2133 223.12 19.3333 223.12 19.48V21.5C223.12 21.6467 223.067 21.7667 222.96 21.86C222.867 21.9533 222.747 22 222.6 22H212.34Z" fill="#DAD6CA"/>
<path d="M212.9 52C212.767 52 212.647 51.9533 212.54 51.86C212.447 51.7667 212.4 51.6467 212.4 51.5V38.5C212.4 38.3533 212.447 38.2333 212.54 38.14C212.647 38.0467 212.767 38 212.9 38H215.06C215.273 38 215.433 38.06 215.54 38.18C215.66 38.2867 215.733 38.3733 215.76 38.44L219.28 44.76L222.8 38.44C222.84 38.3733 222.907 38.2867 223 38.18C223.107 38.06 223.273 38 223.5 38H225.64C225.787 38 225.907 38.0467 226 38.14C226.107 38.2333 226.16 38.3533 226.16 38.5V51.5C226.16 51.6467 226.107 51.7667 226 51.86C225.907 51.9533 225.787 52 225.64 52H223.26C223.113 52 222.987 51.9533 222.88 51.86C222.787 51.7667 222.74 51.6467 222.74 51.5V44L220.48 48.18C220.427 48.3 220.347 48.4067 220.24 48.5C220.133 48.5933 219.987 48.64 219.8 48.64H218.76C218.573 48.64 218.427 48.5933 218.32 48.5C218.213 48.4067 218.127 48.3 218.06 48.18L215.8 44V51.5C215.8 51.6467 215.753 51.7667 215.66 51.86C215.567 51.9533 215.447 52 215.3 52H212.9Z" fill="#DAD6CA"/>
<path d="M247.5 22.2C246.46 22.2 245.573 22.08 244.84 21.84C244.107 21.5867 243.507 21.2667 243.04 20.88C242.573 20.48 242.227 20.06 242 19.62C241.773 19.1667 241.653 18.7333 241.64 18.32C241.64 18.2 241.68 18.1 241.76 18.02C241.853 17.94 241.96 17.9 242.08 17.9H244.68C244.84 17.9 244.967 17.9333 245.06 18C245.153 18.0533 245.24 18.1467 245.32 18.28C245.427 18.5333 245.58 18.74 245.78 18.9C245.993 19.06 246.247 19.1733 246.54 19.24C246.833 19.2933 247.153 19.32 247.5 19.32C248.18 19.32 248.707 19.1667 249.08 18.86C249.467 18.54 249.66 18.1067 249.66 17.56C249.66 16.9867 249.48 16.58 249.12 16.34C248.76 16.0867 248.247 15.96 247.58 15.96H245.36C245.213 15.96 245.093 15.9133 245 15.82C244.907 15.7267 244.86 15.6067 244.86 15.46V14.34C244.86 14.18 244.893 14.04 244.96 13.92C245.027 13.8 245.1 13.7133 245.18 13.66L248.46 10.88H242.9C242.767 10.88 242.647 10.8333 242.54 10.74C242.447 10.6467 242.4 10.5267 242.4 10.38V8.5C242.4 8.35333 242.447 8.23333 242.54 8.14C242.647 8.04667 242.767 8 242.9 8H252.1C252.247 8 252.367 8.04667 252.46 8.14C252.567 8.23333 252.62 8.35333 252.62 8.5V10.2C252.62 10.3467 252.587 10.48 252.52 10.6C252.453 10.7067 252.38 10.7933 252.3 10.86L249.26 13.68L249.4 13.72C250.16 13.8133 250.84 14.02 251.44 14.34C252.04 14.6467 252.513 15.08 252.86 15.64C253.207 16.2 253.38 16.9133 253.38 17.78C253.38 18.6867 253.12 19.4733 252.6 20.14C252.093 20.7933 251.4 21.3 250.52 21.66C249.64 22.02 248.633 22.2 247.5 22.2Z" fill="#DAD6CA"/>
<path d="M242.9 52C242.767 52 242.647 51.9533 242.54 51.86C242.447 51.7667 242.4 51.6467 242.4 51.5V38.5C242.4 38.3533 242.447 38.2333 242.54 38.14C242.647 38.0467 242.767 38 242.9 38H245.06C245.273 38 245.433 38.06 245.54 38.18C245.66 38.2867 245.733 38.3733 245.76 38.44L249.28 44.76L252.8 38.44C252.84 38.3733 252.907 38.2867 253 38.18C253.107 38.06 253.273 38 253.5 38H255.64C255.787 38 255.907 38.0467 256 38.14C256.107 38.2333 256.16 38.3533 256.16 38.5V51.5C256.16 51.6467 256.107 51.7667 256 51.86C255.907 51.9533 255.787 52 255.64 52H253.26C253.113 52 252.987 51.9533 252.88 51.86C252.787 51.7667 252.74 51.6467 252.74 51.5V44L250.48 48.18C250.427 48.3 250.347 48.4067 250.24 48.5C250.133 48.5933 249.987 48.64 249.8 48.64H248.76C248.573 48.64 248.427 48.5933 248.32 48.5C248.213 48.4067 248.127 48.3 248.06 48.18L245.8 44V51.5C245.8 51.6467 245.753 51.7667 245.66 51.86C245.567 51.9533 245.447 52 245.3 52H242.9Z" fill="#DAD6CA"/>
<path d="M278.78 22C278.647 22 278.527 21.9533 278.42 21.86C278.327 21.7667 278.28 21.6467 278.28 21.5V19.24H272.06C271.927 19.24 271.807 19.1933 271.7 19.1C271.607 19.0067 271.56 18.8867 271.56 18.74V16.84C271.56 16.72 271.58 16.6133 271.62 16.52C271.673 16.4133 271.727 16.3133 271.78 16.22L277.6 8.34C277.773 8.11333 278.02 8 278.34 8H281.24C281.387 8 281.507 8.04667 281.6 8.14C281.707 8.23333 281.76 8.35333 281.76 8.5V16.26H283.52C283.68 16.26 283.807 16.3133 283.9 16.42C283.993 16.5133 284.04 16.6267 284.04 16.76V18.74C284.04 18.8867 283.987 19.0067 283.88 19.1C283.787 19.1933 283.673 19.24 283.54 19.24H281.76V21.5C281.76 21.6467 281.707 21.7667 281.6 21.86C281.507 21.9533 281.387 22 281.24 22H278.78ZM275 16.4H278.36V11.68L275 16.4Z" fill="#DAD6CA"/>
<path d="M277.24 52.2C276.48 52.2 275.753 52.1067 275.06 51.92C274.38 51.72 273.773 51.4267 273.24 51.04C272.707 50.6533 272.28 50.1733 271.96 49.6C271.653 49.0267 271.487 48.36 271.46 47.6C271.46 47.48 271.5 47.38 271.58 47.3C271.66 47.2067 271.767 47.16 271.9 47.16H274.6C274.787 47.16 274.927 47.2067 275.02 47.3C275.127 47.3933 275.213 47.5333 275.28 47.72C275.347 48.0933 275.473 48.4 275.66 48.64C275.847 48.8667 276.08 49.04 276.36 49.16C276.653 49.2667 276.98 49.32 277.34 49.32C278.007 49.32 278.52 49.1067 278.88 48.68C279.24 48.24 279.42 47.6 279.42 46.76V40.98H272.94C272.807 40.98 272.687 40.9333 272.58 40.84C272.487 40.7467 272.44 40.6267 272.44 40.48V38.5C272.44 38.3533 272.487 38.2333 272.58 38.14C272.687 38.0467 272.807 38 272.94 38H282.62C282.767 38 282.887 38.0467 282.98 38.14C283.087 38.2333 283.14 38.3533 283.14 38.5V46.86C283.14 48.02 282.887 49 282.38 49.8C281.873 50.5867 281.18 51.1867 280.3 51.6C279.42 52 278.4 52.2 277.24 52.2Z" fill="#DAD6CA"/>
<path d="M308.4 22.22C307.147 22.22 306.1 22.0267 305.26 21.64C304.42 21.24 303.78 20.7267 303.34 20.1C302.913 19.46 302.687 18.7733 302.66 18.04C302.66 17.92 302.7 17.82 302.78 17.74C302.86 17.66 302.96 17.62 303.08 17.62H305.76C305.933 17.62 306.067 17.66 306.16 17.74C306.267 17.8067 306.347 17.8933 306.4 18C306.52 18.3067 306.673 18.56 306.86 18.76C307.06 18.96 307.287 19.1067 307.54 19.2C307.807 19.2933 308.1 19.34 308.42 19.34C308.793 19.34 309.14 19.26 309.46 19.1C309.78 18.94 310.033 18.7067 310.22 18.4C310.42 18.08 310.52 17.7 310.52 17.26C310.52 16.86 310.427 16.5133 310.24 16.22C310.067 15.9267 309.82 15.6933 309.5 15.52C309.18 15.3467 308.82 15.26 308.42 15.26C308.1 15.26 307.84 15.3 307.64 15.38C307.44 15.4467 307.273 15.5333 307.14 15.64C307.007 15.7467 306.887 15.84 306.78 15.92C306.673 15.9867 306.553 16.02 306.42 16.02H303.8C303.68 16.02 303.573 15.98 303.48 15.9C303.4 15.8067 303.36 15.7 303.36 15.58L304.08 8.6C304.107 8.4 304.18 8.25333 304.3 8.16C304.42 8.05333 304.567 8 304.74 8H312.76C312.907 8 313.027 8.04667 313.12 8.14C313.213 8.23333 313.26 8.35333 313.26 8.5V10.38C313.26 10.5267 313.213 10.6467 313.12 10.74C313.027 10.8333 312.907 10.88 312.76 10.88H306.96L306.7 13.48C306.993 13.28 307.333 13.12 307.72 13C308.12 12.8667 308.66 12.8 309.34 12.8C309.98 12.8 310.587 12.9067 311.16 13.12C311.747 13.3333 312.267 13.64 312.72 14.04C313.187 14.44 313.547 14.92 313.8 15.48C314.067 16.0267 314.2 16.6467 314.2 17.34C314.2 18.2867 313.967 19.1267 313.5 19.86C313.047 20.5933 312.387 21.1733 311.52 21.6C310.653 22.0133 309.613 22.22 308.4 22.22Z" fill="#DAD6CA"/>
<path d="M307.4 52C307.173 52 306.993 51.94 306.86 51.82C306.727 51.7 306.633 51.56 306.58 51.4L302.5 38.6C302.473 38.5333 302.46 38.4733 302.46 38.42C302.46 38.3133 302.5 38.22 302.58 38.14C302.673 38.0467 302.78 38 302.9 38H305.38C305.593 38 305.76 38.06 305.88 38.18C306 38.3 306.073 38.4133 306.1 38.52L308.92 47.76L311.76 38.52C311.8 38.4133 311.873 38.3 311.98 38.18C312.1 38.06 312.267 38 312.48 38H314.96C315.08 38 315.18 38.0467 315.26 38.14C315.353 38.22 315.4 38.3133 315.4 38.42C315.4 38.4733 315.387 38.5333 315.36 38.6L311.28 51.4C311.227 51.56 311.133 51.7 311 51.82C310.88 51.94 310.7 52 310.46 52H307.4Z" fill="#DAD6CA"/>
<path d="M337.6 22.2C336.427 22.2 335.393 21.9867 334.5 21.56C333.607 21.1333 332.907 20.5467 332.4 19.8C331.907 19.04 331.66 18.1733 331.66 17.2C331.66 16.7867 331.72 16.38 331.84 15.98C331.973 15.5667 332.133 15.18 332.32 14.82C332.507 14.4467 332.693 14.12 332.88 13.84C333.067 13.5467 333.22 13.3133 333.34 13.14L336.86 8.4C336.927 8.33333 337.013 8.25333 337.12 8.16C337.227 8.05333 337.38 8 337.58 8H340.24C340.36 8 340.46 8.04667 340.54 8.14C340.62 8.22 340.66 8.32 340.66 8.44C340.66 8.49333 340.653 8.54667 340.64 8.6C340.627 8.64 340.607 8.67333 340.58 8.7L337.88 12.38C337.96 12.3533 338.053 12.34 338.16 12.34C338.28 12.3267 338.387 12.32 338.48 12.32C339.08 12.3467 339.673 12.48 340.26 12.72C340.847 12.96 341.38 13.2867 341.86 13.7C342.34 14.1133 342.72 14.6133 343 15.2C343.293 15.7733 343.44 16.42 343.44 17.14C343.44 18.06 343.2 18.9067 342.72 19.68C342.24 20.44 341.56 21.0533 340.68 21.52C339.813 21.9733 338.787 22.2 337.6 22.2ZM337.58 19.32C337.967 19.32 338.327 19.24 338.66 19.08C338.993 18.9067 339.26 18.6667 339.46 18.36C339.673 18.04 339.78 17.6467 339.78 17.18C339.78 16.7133 339.68 16.3267 339.48 16.02C339.28 15.7 339.013 15.46 338.68 15.3C338.347 15.14 337.98 15.06 337.58 15.06C337.18 15.06 336.807 15.14 336.46 15.3C336.127 15.46 335.86 15.7 335.66 16.02C335.46 16.3267 335.36 16.7133 335.36 17.18C335.36 17.6467 335.46 18.04 335.66 18.36C335.873 18.6667 336.147 18.9067 336.48 19.08C336.813 19.24 337.18 19.32 337.58 19.32Z" fill="#DAD6CA"/>
<path d="M337.62 52.2C336.287 52.2 335.18 52.0133 334.3 51.64C333.42 51.2533 332.753 50.7533 332.3 50.14C331.847 49.5267 331.607 48.8733 331.58 48.18C331.58 48.0733 331.62 47.98 331.7 47.9C331.793 47.8067 331.9 47.76 332.02 47.76H334.54C334.727 47.76 334.867 47.7933 334.96 47.86C335.067 47.9267 335.16 48.0133 335.24 48.12C335.347 48.32 335.493 48.5133 335.68 48.7C335.88 48.8867 336.133 49.04 336.44 49.16C336.76 49.2667 337.153 49.32 337.62 49.32C338.393 49.32 338.973 49.2 339.36 48.96C339.76 48.72 339.96 48.3933 339.96 47.98C339.96 47.6867 339.853 47.4467 339.64 47.26C339.427 47.06 339.08 46.8867 338.6 46.74C338.133 46.58 337.507 46.42 336.72 46.26C335.707 46.0467 334.84 45.7733 334.12 45.44C333.413 45.0933 332.873 44.6467 332.5 44.1C332.127 43.54 331.94 42.8467 331.94 42.02C331.94 41.2067 332.167 40.48 332.62 39.84C333.087 39.2 333.733 38.7 334.56 38.34C335.387 37.98 336.367 37.8 337.5 37.8C338.42 37.8 339.227 37.92 339.92 38.16C340.627 38.4 341.22 38.72 341.7 39.12C342.18 39.52 342.54 39.9467 342.78 40.4C343.033 40.84 343.167 41.2733 343.18 41.7C343.18 41.8067 343.14 41.9067 343.06 42C342.98 42.08 342.88 42.12 342.76 42.12H340.12C339.973 42.12 339.847 42.0933 339.74 42.04C339.633 41.9867 339.54 41.9 339.46 41.78C339.38 41.4867 339.167 41.2333 338.82 41.02C338.487 40.7933 338.047 40.68 337.5 40.68C336.913 40.68 336.453 40.7867 336.12 41C335.8 41.2 335.64 41.5133 335.64 41.94C335.64 42.2067 335.727 42.44 335.9 42.64C336.087 42.84 336.387 43.0133 336.8 43.16C337.227 43.3067 337.807 43.46 338.54 43.62C339.753 43.8467 340.733 44.1333 341.48 44.48C342.227 44.8133 342.773 45.2533 343.12 45.8C343.467 46.3333 343.64 47.0067 343.64 47.82C343.64 48.7267 343.38 49.5133 342.86 50.18C342.353 50.8333 341.647 51.3333 340.74 51.68C339.833 52.0267 338.793 52.2 337.62 52.2Z" fill="#DAD6CA"/>
<path d="M363.82 22C363.7 22 363.6 21.96 363.52 21.88C363.44 21.7867 363.4 21.68 363.4 21.56C363.4 21.5067 363.413 21.4467 363.44 21.38L368.06 11.02H362.06C361.927 11.02 361.807 10.9733 361.7 10.88C361.607 10.7733 361.56 10.6467 361.56 10.5V8.5C361.56 8.35333 361.607 8.23333 361.7 8.14C361.807 8.04667 361.927 8 362.06 8H371.42C371.58 8 371.707 8.04667 371.8 8.14C371.893 8.23333 371.94 8.35333 371.94 8.5V10.28C371.94 10.48 371.92 10.6467 371.88 10.78C371.84 10.9133 371.787 11.0467 371.72 11.18L367.1 21.52C367.06 21.6 366.987 21.7 366.88 21.82C366.773 21.94 366.613 22 366.4 22H363.82Z" fill="#DAD6CA"/>
<path d="M362.9 52C362.753 52 362.633 51.9533 362.54 51.86C362.447 51.7667 362.4 51.6467 362.4 51.5V38.5C362.4 38.3533 362.447 38.2333 362.54 38.14C362.633 38.0467 362.753 38 362.9 38H368.1C369.407 38 370.52 38.2133 371.44 38.64C372.36 39.0533 373.067 39.6667 373.56 40.48C374.053 41.28 374.32 42.2733 374.36 43.46C374.373 44.0467 374.38 44.56 374.38 45C374.38 45.44 374.373 45.9467 374.36 46.52C374.307 47.76 374.04 48.7867 373.56 49.6C373.093 50.4133 372.407 51.02 371.5 51.42C370.607 51.8067 369.507 52 368.2 52H362.9ZM365.98 49.12H368.1C368.673 49.12 369.147 49.0333 369.52 48.86C369.907 48.6733 370.193 48.3867 370.38 48C370.58 47.6133 370.687 47.1067 370.7 46.48C370.727 46.0933 370.74 45.7467 370.74 45.44C370.753 45.1333 370.753 44.8267 370.74 44.52C370.74 44.2133 370.727 43.8733 370.7 43.5C370.673 42.5933 370.433 41.9333 369.98 41.52C369.54 41.0933 368.88 40.88 368 40.88H365.98V49.12Z" fill="#DAD6CA"/>
</svg>
