<svg width="256" height="256" viewBox="0 0 256 256" fill="none" xmlns="http://www.w3.org/2000/svg">
<path d="M127.179 180.817L161.447 254.307L189.292 228.795L226.735 223.863L193.394 152.363C166.393 152.132 144.391 160.922 128.534 180.817" fill="#4F8699"/>
<path d="M128.534 180.817L94.2659 254.307L66.4216 228.795L28.9783 223.863L62.319 152.363C95.5978 149.848 118.131 158.84 128.534 180.817Z" fill="#3E6876"/>
<path d="M127.857 180.817C177.4 180.817 217.56 140.653 217.56 91.1131C217.56 41.5728 177.4 1.40662 127.857 1.40662C98.3038 62.614 95.9491 122.529 127.857 180.817Z" fill="#FFCC5B"/>
<path d="M127.857 180.817C78.3135 180.817 38.153 140.653 38.153 91.1131C38.153 41.5728 78.3135 1.40662 127.857 1.40662V180.724" fill="#FDBC4B"/>
<path d="M110.373 154.302C110.114 154.302 109.85 154.265 109.589 154.192C74.8094 144.115 54.7039 107.625 64.7777 72.8425C65.2077 71.3504 66.7644 70.4933 68.2593 70.926C69.7486 71.356 70.6085 72.9155 70.1757 74.4076C60.9674 106.211 79.3476 139.58 111.154 148.791C112.643 149.224 113.503 150.783 113.07 152.273C112.714 153.504 111.59 154.302 110.373 154.302Z" fill="#EC9922"/>
<path d="M188.235 111.407C187.977 111.407 187.712 111.37 187.454 111.294C185.965 110.862 185.105 109.305 185.535 107.813C190 92.4057 188.193 76.1836 180.454 62.1336C172.713 48.0836 159.967 37.8889 144.559 33.4266C143.07 32.9967 142.21 31.4371 142.64 29.945C143.073 28.4557 144.63 27.5987 146.122 28.0286C162.97 32.9067 176.911 44.0568 185.375 59.4219C193.841 74.787 195.814 92.5265 190.936 109.375C190.579 110.609 189.457 111.407 188.235 111.407Z" fill="#EC9922"/>
<path d="M154.726 97.9131L155.375 91.8756C155.721 88.6544 155.95 86.5273 155.771 85.1871L155.833 85.1875C158.767 85.1875 161.146 82.809 161.146 79.875C161.146 76.941 158.767 74.5625 155.833 74.5625C152.899 74.5625 150.521 76.941 150.521 79.875C150.521 81.2019 151.007 82.4152 151.812 83.3463C150.657 84.0591 149.147 85.5629 146.875 87.8264C145.124 89.5703 144.249 90.4423 143.272 90.5776C142.731 90.6523 142.18 90.5754 141.68 90.3555C140.778 89.9581 140.177 88.8804 138.975 86.7246L132.637 75.3608C131.895 74.0308 131.274 72.9176 130.715 72.0219C133.011 70.8504 134.583 68.463 134.583 65.7083C134.583 61.7963 131.412 58.625 127.5 58.625C123.588 58.625 120.417 61.7963 120.417 65.7083C120.417 68.463 121.989 70.8504 124.285 72.0219C123.726 72.9177 123.105 74.0307 122.363 75.3608L116.025 86.7246C114.823 88.8804 114.222 89.9581 113.32 90.3555C112.82 90.5754 112.269 90.6523 111.728 90.5776C110.751 90.4423 109.876 89.5703 108.125 87.8264C105.853 85.5629 104.343 84.0591 103.188 83.3463C103.993 82.4152 104.479 81.2019 104.479 79.875C104.479 76.941 102.101 74.5625 99.1667 74.5625C96.2327 74.5625 93.8542 76.941 93.8542 79.875C93.8542 82.809 96.2327 85.1875 99.1667 85.1875L99.2294 85.1871C99.0499 86.5273 99.2787 88.6544 99.6252 91.8756L100.275 97.9131C100.635 101.264 100.935 104.453 101.302 107.323H153.698C154.065 104.453 154.365 101.264 154.726 97.9131Z" fill="#EC9922"/>
<path d="M123.647 122.375H131.353C141.397 122.375 146.419 122.375 149.77 119.376C151.232 118.067 152.158 115.707 152.826 112.635H102.173C102.842 115.707 103.768 118.067 105.23 119.376C108.581 122.375 113.603 122.375 123.647 122.375Z" fill="#EC9922"/>
</svg>
