<svg width="256" height="256" viewBox="0 0 256 256" fill="none" xmlns="http://www.w3.org/2000/svg">
<path d="M127.179 180.817L161.447 254.307L189.292 228.795L226.735 223.863L193.394 152.363C166.393 152.132 144.391 160.922 128.534 180.817" fill="#4F8699"/>
<path d="M128.534 180.817L94.2658 254.307L66.4215 228.795L28.9783 223.863L62.3189 152.363C95.5978 149.848 118.131 158.84 128.534 180.817Z" fill="#3E6876"/>
<path d="M127.857 180.817C177.4 180.817 217.56 140.653 217.56 91.113C217.56 41.5727 177.4 1.40659 127.857 1.40659C98.3038 62.614 95.9491 122.529 127.857 180.817Z" fill="#FFCC5B"/>
<path d="M127.857 180.817C78.3135 180.817 38.153 140.653 38.153 91.113C38.153 41.5727 78.3135 1.40659 127.857 1.40659V180.724" fill="#FDBC4B"/>
<path d="M110.373 154.301C110.114 154.301 109.85 154.265 109.589 154.192C74.8093 144.115 54.7038 107.625 64.7776 72.8424C65.2075 71.3503 66.7643 70.4932 68.2592 70.926C69.7485 71.3559 70.6084 72.9155 70.1756 74.4076C60.9673 106.211 79.3475 139.58 111.154 148.791C112.643 149.224 113.503 150.783 113.07 152.273C112.713 153.503 111.589 154.301 110.373 154.301Z" fill="#EC9922"/>
<path d="M188.235 111.407C187.976 111.407 187.712 111.37 187.454 111.294C185.965 110.862 185.105 109.305 185.535 107.813C190 92.4056 188.193 76.1835 180.454 62.1335C172.713 48.0835 159.966 37.8888 144.559 33.4265C143.07 32.9966 142.21 31.4371 142.64 29.9449C143.073 28.4556 144.629 27.5986 146.122 28.0285C162.97 32.9067 176.911 44.0568 185.374 59.4218C193.841 74.7869 195.814 92.5265 190.935 109.375C190.579 110.609 189.457 111.407 188.235 111.407Z" fill="#EC9922"/>
<path d="M162.916 76.9083V77.1652C162.916 80.2136 162.916 81.7379 162.183 82.985C161.449 84.232 160.116 84.9722 157.452 86.4526L154.642 88.0138C156.578 81.4682 157.224 74.4355 157.463 68.4212C157.473 68.1633 157.485 67.9022 157.496 67.6384L157.504 67.4536C159.811 68.2547 161.106 68.8519 161.914 69.9728C162.917 71.3641 162.917 73.2122 162.916 76.9083Z" fill="#EC9922"/>
<path d="M92.0834 76.9083V77.1652C92.0835 80.2136 92.0835 81.7379 92.8173 82.985C93.5511 84.232 94.8835 84.9722 97.5483 86.4526L100.36 88.0145C98.4232 81.4688 97.7772 74.4358 97.5384 68.4212C97.5282 68.1633 97.5166 67.9022 97.505 67.6385L97.4968 67.4532C95.1895 68.2545 93.8941 68.8516 93.086 69.9728C92.0832 71.3641 92.0833 73.2122 92.0834 76.9083Z" fill="#EC9922"/>
<path fill-rule="evenodd" clip-rule="evenodd" d="M143.002 56.3114C139.021 55.6397 133.817 55.0833 127.501 55.0833C121.184 55.0833 115.98 55.6397 111.999 56.3114C107.966 56.9918 105.949 57.3321 104.264 59.4071C102.58 61.4822 102.669 63.7249 102.847 68.2104C103.458 83.6093 106.781 102.843 124.844 104.545V117.063H119.778C118.09 117.063 116.637 118.254 116.306 119.91L115.635 123.26H106.25C104.783 123.26 103.594 124.45 103.594 125.917C103.594 127.384 104.783 128.573 106.25 128.573H148.75C150.217 128.573 151.406 127.384 151.406 125.917C151.406 124.45 150.217 123.26 148.75 123.26H139.365L138.694 119.91C138.363 118.254 136.91 117.063 135.222 117.063H130.156V104.545C148.22 102.844 151.543 83.6097 152.154 68.2104C152.332 63.7249 152.422 61.4822 150.736 59.4071C149.052 57.3321 147.035 56.9918 143.002 56.3114Z" fill="#EC9922"/>
</svg>
