<svg width="256" height="256" viewBox="0 0 256 256" fill="none" xmlns="http://www.w3.org/2000/svg">
<path d="M127.179 180.817L161.447 254.307L189.292 228.795L226.735 223.863L193.394 152.363C166.393 152.132 144.391 160.922 128.534 180.817" fill="#4F8699"/>
<path d="M128.534 180.817L94.2658 254.307L66.4215 228.795L28.9783 223.863L62.3189 152.363C95.5978 149.848 118.131 158.84 128.534 180.817Z" fill="#3E6876"/>
<path d="M127.857 180.817C177.4 180.817 217.56 140.653 217.56 91.1131C217.56 41.5728 177.4 1.40662 127.857 1.40662C98.3038 62.614 95.9491 122.529 127.857 180.817Z" fill="#FFCC5B"/>
<path d="M127.857 180.817C78.3135 180.817 38.153 140.653 38.153 91.1131C38.153 41.5728 78.3135 1.40662 127.857 1.40662V180.724" fill="#FDBC4B"/>
<path d="M110.373 154.302C110.114 154.302 109.85 154.265 109.589 154.192C74.8093 144.115 54.7038 107.625 64.7776 72.8425C65.2075 71.3504 66.7643 70.4933 68.2592 70.926C69.7485 71.356 70.6084 72.9155 70.1756 74.4076C60.9673 106.211 79.3475 139.58 111.154 148.791C112.643 149.224 113.503 150.783 113.07 152.273C112.713 153.504 111.589 154.302 110.373 154.302Z" fill="#EC9922"/>
<path d="M188.235 111.407C187.976 111.407 187.712 111.37 187.454 111.294C185.965 110.862 185.105 109.305 185.535 107.813C190 92.4057 188.193 76.1836 180.454 62.1336C172.713 48.0836 159.966 37.8889 144.559 33.4266C143.07 32.9967 142.21 31.4371 142.64 29.945C143.073 28.4557 144.629 27.5987 146.122 28.0286C162.97 32.9067 176.911 44.0568 185.374 59.4219C193.841 74.787 195.814 92.5265 190.935 109.375C190.579 110.609 189.457 111.407 188.235 111.407Z" fill="#EC9922"/>
<g clip-path="url(#clip0_25_18)">
<path fill-rule="evenodd" clip-rule="evenodd" d="M160 81H140V61C140 55.475 135.523 51 130 51C124.477 51 120 55.475 120 61V81H100C94.4775 81 90 85.475 90 91C90 96.525 94.4775 101 100 101H120V121C120 126.525 124.477 131 130 131C135.523 131 140 126.525 140 121V101H160C165.523 101 170 96.525 170 91C170 85.475 165.523 81 160 81Z" fill="#EC9922"/>
</g>
<defs>
<clipPath id="clip0_25_18">
<rect width="80" height="80" fill="white" transform="translate(90 51)"/>
</clipPath>
</defs>
</svg>
