<svg width="256" height="256" viewBox="0 0 256 256" fill="none" xmlns="http://www.w3.org/2000/svg">
<path d="M127.179 180.817L161.447 254.307L189.292 228.795L226.735 223.863L193.394 152.363C166.393 152.132 144.391 160.922 128.534 180.817" fill="#4F8699"/>
<path d="M128.534 180.817L94.2658 254.307L66.4215 228.795L28.9783 223.863L62.3189 152.363C95.5978 149.848 118.131 158.84 128.534 180.817Z" fill="#3E6876"/>
<path d="M127.857 180.817C177.4 180.817 217.56 140.653 217.56 91.113C217.56 41.5727 177.4 1.40659 127.857 1.40659C98.3038 62.614 95.9491 122.529 127.857 180.817Z" fill="#FFCC5B"/>
<path d="M127.857 180.817C78.3135 180.817 38.153 140.653 38.153 91.113C38.153 41.5727 78.3135 1.40659 127.857 1.40659V180.724" fill="#FDBC4B"/>
<path d="M110.373 154.301C110.114 154.301 109.85 154.265 109.589 154.192C74.8093 144.115 54.7038 107.625 64.7776 72.8424C65.2075 71.3503 66.7643 70.4932 68.2592 70.926C69.7485 71.3559 70.6084 72.9155 70.1756 74.4076C60.9673 106.211 79.3475 139.58 111.154 148.791C112.643 149.224 113.503 150.783 113.07 152.273C112.713 153.503 111.589 154.301 110.373 154.301Z" fill="#EC9922"/>
<path d="M188.235 111.407C187.976 111.407 187.712 111.37 187.454 111.294C185.965 110.862 185.105 109.305 185.535 107.813C190 92.4056 188.193 76.1835 180.454 62.1335C172.713 48.0835 159.966 37.8888 144.559 33.4265C143.07 32.9966 142.21 31.4371 142.64 29.9449C143.073 28.4556 144.629 27.5986 146.122 28.0285C162.97 32.9067 176.911 44.0568 185.374 59.4218C193.841 74.7869 195.814 92.5265 190.935 109.375C190.579 110.609 189.457 111.407 188.235 111.407Z" fill="#EC9922"/>
<path d="M104.809 133.549C104.177 133.549 103.548 133.338 103.031 132.911C101.98 132.051 101.693 130.562 102.354 129.373L121.245 95.3133L106.838 87.08C106.043 86.6248 105.518 85.8127 105.433 84.8995C105.349 83.9862 105.714 83.0898 106.411 82.4997L146.249 48.6673C147.257 47.8131 148.716 47.7765 149.769 48.5718C150.82 49.3726 151.172 50.7945 150.618 51.9915L136.467 82.5081L150.787 90.2806C151.599 90.7218 152.141 91.5367 152.239 92.4584C152.335 93.38 151.973 94.2877 151.267 94.889L106.63 132.88C106.108 133.324 105.459 133.549 104.809 133.549Z" fill="#EC9922"/>
</svg>
