<svg width="256" height="256" viewBox="0 0 256 256" fill="none" xmlns="http://www.w3.org/2000/svg">
<path d="M127.179 180.817L161.447 254.307L189.292 228.795L226.735 223.863L193.394 152.363C166.393 152.132 144.391 160.922 128.534 180.817" fill="#4F8699"/>
<path d="M128.534 180.817L94.2659 254.307L66.4216 228.795L28.9783 223.863L62.319 152.363C95.5978 149.848 118.131 158.84 128.534 180.817Z" fill="#3E6876"/>
<path d="M127.857 180.817C177.4 180.817 217.56 140.653 217.56 91.113C217.56 41.5727 177.4 1.40659 127.857 1.40659C98.3038 62.614 95.9491 122.529 127.857 180.817Z" fill="#FFCC5B"/>
<path d="M127.857 180.817C78.3135 180.817 38.153 140.653 38.153 91.113C38.153 41.5727 78.3135 1.40659 127.857 1.40659V180.724" fill="#FDBC4B"/>
<path d="M110.373 154.301C110.114 154.301 109.85 154.265 109.589 154.192C74.8094 144.115 54.7039 107.625 64.7777 72.8424C65.2077 71.3503 66.7644 70.4932 68.2593 70.926C69.7486 71.3559 70.6085 72.9155 70.1757 74.4076C60.9674 106.211 79.3476 139.58 111.154 148.791C112.643 149.224 113.503 150.783 113.07 152.273C112.714 153.503 111.59 154.301 110.373 154.301Z" fill="#EC9922"/>
<path d="M188.235 111.407C187.977 111.407 187.712 111.37 187.454 111.294C185.965 110.862 185.105 109.305 185.535 107.813C190 92.4056 188.193 76.1835 180.454 62.1335C172.713 48.0835 159.967 37.8888 144.559 33.4265C143.07 32.9966 142.21 31.4371 142.64 29.9449C143.073 28.4556 144.63 27.5986 146.122 28.0285C162.97 32.9067 176.911 44.0568 185.375 59.4218C193.841 74.7869 195.814 92.5265 190.936 109.375C190.579 110.609 189.457 111.407 188.235 111.407Z" fill="#EC9922"/>
<path fill-rule="evenodd" clip-rule="evenodd" d="M136.165 115.002L156.873 94.3561C159.855 91.3829 161.346 89.8963 162.131 88.0058C162.917 86.1154 162.917 84.013 162.917 79.8082V77.7994C162.917 71.3336 162.917 68.1007 160.902 66.092C158.888 64.0833 155.645 64.0833 149.16 64.0833H147.145C142.928 64.0833 140.819 64.0833 138.923 64.8664C137.026 65.6495 135.535 67.1361 132.553 70.1093L111.846 90.7549C108.361 94.2289 106.2 96.3833 105.363 98.4641C105.099 99.1214 104.967 99.7717 104.967 100.453C104.967 103.294 107.26 105.58 111.846 110.152L112.462 110.767L119.682 103.439C120.711 102.394 122.393 102.382 123.438 103.411C124.483 104.441 124.495 106.123 123.466 107.168L116.224 114.518L116.709 115.002C121.295 119.574 123.588 121.86 126.438 121.86C127.067 121.86 127.669 121.748 128.275 121.525C130.412 120.738 132.593 118.563 136.165 115.002ZM145.894 90.7563C143.207 93.4346 138.852 93.4346 136.166 90.7563C133.479 88.0781 133.479 83.7359 136.166 81.0576C138.852 78.3794 143.207 78.3794 145.894 81.0576C148.58 83.7359 148.58 88.0781 145.894 90.7563Z" fill="#EC9922"/>
<g opacity="0.5">
<path d="M116.996 78.1191L107.989 87.0991C106.334 88.7496 104.815 90.2637 103.616 91.6324C102.846 92.5112 102.076 93.4735 101.424 94.5363L101.336 94.4489C101.17 94.2828 101.086 94.1995 101.003 94.1184C99.4371 92.5994 97.5956 91.3918 95.5767 90.5599C95.4688 90.5155 95.3593 90.4721 95.1403 90.3853L93.7992 89.8539C91.9825 89.1341 91.4983 86.7953 92.8807 85.4171C96.8481 81.4617 101.612 76.7127 103.91 75.7589C105.938 74.9177 108.128 74.6378 110.24 74.9499C112.176 75.236 114.006 76.2301 116.996 78.1191Z" fill="#EC9922"/>
<path d="M132.376 125.401C133.101 126.138 133.584 126.658 134.019 127.214C134.594 127.947 135.109 128.727 135.557 129.544C136.061 130.463 136.453 131.446 137.236 133.411C137.874 135.011 139.992 135.433 141.223 134.207L141.52 133.91C145.487 129.954 150.251 125.205 151.207 122.913C152.051 120.892 152.332 118.708 152.019 116.602C151.732 114.673 150.735 112.848 148.841 109.868L139.804 118.878C138.11 120.565 136.558 122.114 135.154 123.326C134.313 124.053 133.392 124.779 132.376 125.401Z" fill="#EC9922"/>
</g>
</svg>
