<svg width="256" height="256" viewBox="0 0 256 256" fill="none" xmlns="http://www.w3.org/2000/svg">
<path d="M127.179 180.817L161.447 254.307L189.292 228.795L226.735 223.863L193.394 152.363C166.393 152.132 144.391 160.922 128.534 180.817" fill="#4F8699"/>
<path d="M128.534 180.817L94.2659 254.307L66.4216 228.795L28.9783 223.863L62.319 152.363C95.5978 149.848 118.131 158.84 128.534 180.817Z" fill="#3E6876"/>
<path d="M127.857 180.817C177.4 180.817 217.56 140.653 217.56 91.113C217.56 41.5727 177.4 1.40659 127.857 1.40659C98.3038 62.614 95.9491 122.529 127.857 180.817Z" fill="#FFCC5B"/>
<path d="M127.857 180.817C78.3135 180.817 38.153 140.653 38.153 91.113C38.153 41.5727 78.3135 1.40659 127.857 1.40659V180.724" fill="#FDBC4B"/>
<path d="M110.373 154.301C110.114 154.301 109.85 154.265 109.589 154.192C74.8094 144.115 54.7039 107.625 64.7777 72.8424C65.2077 71.3503 66.7644 70.4932 68.2593 70.926C69.7486 71.3559 70.6085 72.9155 70.1757 74.4076C60.9674 106.211 79.3476 139.58 111.154 148.791C112.643 149.224 113.503 150.783 113.07 152.273C112.714 153.503 111.59 154.301 110.373 154.301Z" fill="#EC9922"/>
<path d="M188.235 111.407C187.977 111.407 187.712 111.37 187.454 111.294C185.965 110.862 185.105 109.305 185.535 107.813C190 92.4056 188.193 76.1835 180.454 62.1335C172.713 48.0835 159.967 37.8888 144.559 33.4265C143.07 32.9966 142.21 31.4371 142.64 29.9449C143.073 28.4556 144.63 27.5986 146.122 28.0285C162.97 32.9067 176.911 44.0568 185.375 59.4218C193.841 74.7869 195.814 92.5265 190.936 109.375C190.579 110.609 189.457 111.407 188.235 111.407Z" fill="#EC9922"/>
<g clip-path="url(#clip0_22_20)">
<path d="M131.38 59.6299L139.275 75.6274C139.824 76.7401 140.886 77.511 142.114 77.6892L159.769 80.2547C162.861 80.7044 164.095 84.5037 161.858 86.6838L149.083 99.136C148.195 100.002 147.789 101.25 148 102.472L151.015 120.056C151.544 123.135 148.311 125.483 145.545 124.03L129.755 115.729C128.657 115.152 127.344 115.152 126.246 115.729L110.456 124.03C107.691 125.485 104.458 123.135 104.986 120.056L108.002 102.472C108.212 101.25 107.806 100.002 106.918 99.136L94.1433 86.6838C91.9063 84.5023 93.1401 80.703 96.2328 80.2547L113.888 77.6892C115.116 77.511 116.177 76.7401 116.726 75.6274L124.621 59.6299C126.002 56.8279 129.997 56.8279 131.38 59.6299Z" fill="#EC9922"/>
</g>
<defs>
<clipPath id="clip0_22_20">
<rect width="70" height="70" fill="white" transform="translate(93 56)"/>
</clipPath>
</defs>
</svg>
