<svg width="234" height="39" viewBox="0 0 234 39" fill="none" xmlns="http://www.w3.org/2000/svg">
<path d="M20 39C30.7696 39 39.5 30.2696 39.5 19.5C39.5 8.73045 30.7696 0 20 0C9.23045 0 0.5 8.73045 0.5 19.5C0.5 30.2696 9.23045 39 20 39Z" fill="#563444"/>
<path fill-rule="evenodd" clip-rule="evenodd" d="M22.5584 25.4711L29.8669 18.1845C30.9195 17.1351 31.4457 16.6104 31.7229 15.9432C32.0001 15.276 32.0001 14.534 32.0001 13.0499V12.341C32.0001 10.0589 32.0001 8.91789 31.289 8.20894C30.578 7.5 29.4335 7.5 27.1446 7.5H26.4335C24.945 7.5 24.2008 7.5 23.5315 7.77638C22.8623 8.05275 22.336 8.57744 21.2835 9.62682L13.9749 16.9135C12.745 18.1396 11.9824 18.9 11.6871 19.6344C11.5938 19.8664 11.5471 20.0959 11.5471 20.3365C11.5471 21.3391 12.3564 22.146 13.9749 23.7596L14.1924 23.9765L16.7406 21.3904C17.104 21.0215 17.6975 21.0171 18.0664 21.3805C18.4351 21.7439 18.4395 22.3375 18.0761 22.7064L15.5203 25.3004L15.6916 25.4711C17.3101 27.0849 18.1194 27.8916 19.125 27.8916C19.3471 27.8916 19.5598 27.8522 19.7736 27.7735C20.5278 27.4957 21.2975 26.7282 22.5584 25.4711ZM25.9919 16.914C25.0438 17.8592 23.5066 17.8592 22.5585 16.914C21.6104 15.9687 21.6104 14.4362 22.5585 13.4909C23.5066 12.5457 25.0438 12.5457 25.9919 13.4909C26.94 14.4362 26.94 15.9687 25.9919 16.914Z" fill="white"/>
<g opacity="0.5">
<path d="M15.7929 12.4538L12.6139 15.6232C12.0296 16.2057 11.4936 16.7401 11.0703 17.2232C10.7985 17.5334 10.5268 17.873 10.2967 18.2481L10.2657 18.2172C10.2069 18.1586 10.1775 18.1292 10.148 18.1006C9.59545 17.5645 8.94552 17.1383 8.23295 16.8447C8.19488 16.829 8.15623 16.8137 8.07893 16.7831L7.60562 16.5955C6.96442 16.3414 6.79353 15.516 7.28143 15.0296C8.68169 13.6335 10.3629 11.9574 11.1743 11.6208C11.8898 11.3239 12.6628 11.2251 13.4083 11.3353C14.0914 11.4362 14.7376 11.7871 15.7929 12.4538Z" fill="white"/>
<path d="M21.2209 29.1415C21.477 29.4015 21.6471 29.5851 21.801 29.7814C22.0039 30.0402 22.1854 30.3152 22.3435 30.6036C22.5215 30.9282 22.6598 31.275 22.9363 31.9685C23.1613 32.5331 23.909 32.6824 24.3433 32.2494L24.4483 32.1446C25.8485 30.7485 27.5296 29.0724 27.8673 28.2635C28.1651 27.55 28.2641 26.7794 28.1536 26.0361C28.0524 25.3551 27.7006 24.711 27.032 23.6591L23.8425 26.8391C23.2449 27.4349 22.697 27.9812 22.2015 28.4091C21.9045 28.6656 21.5796 28.922 21.2209 29.1415Z" fill="white"/>
</g>
<path d="M48.2461 25C47.7904 25 47.5625 24.7559 47.5625 24.2676V11.7285C47.5625 11.2402 47.7904 10.9961 48.2461 10.9961H51.8984C54.2422 10.9961 55.8665 11.377 56.7715 12.1387C57.6829 12.9004 58.1387 13.9811 58.1387 15.3809C58.1387 16.7806 57.6829 17.8613 56.7715 18.623C55.8665 19.3848 54.2422 19.7656 51.8984 19.7656H50.4141V24.2676C50.4141 24.7559 50.1862 25 49.7305 25H48.2461ZM50.4141 17.3828H51.8887C53.1908 17.3828 54.0762 17.2298 54.5449 16.9238C55.0137 16.6113 55.248 16.097 55.248 15.3809C55.248 14.6647 55.0137 14.1536 54.5449 13.8477C54.0762 13.5352 53.1908 13.3789 51.8887 13.3789H50.4141V17.3828ZM61.0148 25C60.5591 25 60.3313 24.7559 60.3313 24.2676V11.7285C60.3313 11.2402 60.5591 10.9961 61.0148 10.9961H65.5363C67.548 10.9961 69.0161 11.3086 69.9406 11.9336C70.8651 12.5521 71.3273 13.5612 71.3273 14.9609C71.3273 16.0026 70.953 16.8327 70.2043 17.4512C69.4556 18.0697 68.5051 18.4798 67.3527 18.6816V18.7012C67.9777 18.9355 68.4497 19.2611 68.7688 19.6777C69.0878 20.0944 69.3482 20.459 69.55 20.7715L71.6984 24.1602C72.0565 24.7201 71.9328 25 71.3273 25H69.6281C69.2701 25 68.9771 24.8079 68.7492 24.4238L66.7766 21.1328C66.5617 20.7812 66.1678 20.3971 65.5949 19.9805C65.0285 19.5573 64.4654 19.3457 63.9055 19.3457H63.1828V24.2676C63.1828 24.7559 62.9549 25 62.4992 25H61.0148ZM63.1828 16.9238H64.9309C66.2329 16.9238 67.1574 16.7773 67.7043 16.4844C68.2577 16.1849 68.5344 15.7129 68.5344 15.0684C68.5344 14.3652 68.2674 13.9095 67.7336 13.7012C67.2063 13.4863 66.4283 13.3789 65.3996 13.3789H63.1828V16.9238ZM73.3539 17.998C73.3539 15.752 73.9333 13.9681 75.0922 12.6465C76.251 11.3249 77.9047 10.6641 80.0531 10.6641C82.2016 10.6641 83.8552 11.3249 85.0141 12.6465C86.1729 13.9681 86.7523 15.752 86.7523 17.998C86.7523 20.2441 86.1729 22.028 85.0141 23.3496C83.8552 24.6712 82.2016 25.332 80.0531 25.332C77.9047 25.332 76.251 24.6712 75.0922 23.3496C73.9333 22.028 73.3539 20.2441 73.3539 17.998ZM76.4008 17.998C76.4008 19.6257 76.6905 20.8724 77.2699 21.7383C77.8559 22.5977 78.7836 23.0273 80.0531 23.0273C81.3227 23.0273 82.2471 22.5977 82.8266 21.7383C83.4125 20.8724 83.7055 19.6257 83.7055 17.998C83.7055 16.3704 83.4125 15.127 82.8266 14.2676C82.2471 13.4017 81.3227 12.9688 80.0531 12.9688C78.7836 12.9688 77.8559 13.4017 77.2699 14.2676C76.6905 15.127 76.4008 16.3704 76.4008 17.998ZM88.2711 24.8145C87.926 24.6126 87.7958 24.3685 87.8805 24.082L88.2906 22.7441C88.4078 22.36 88.7138 22.321 89.2086 22.627C89.6318 22.8939 90.1038 23.0273 90.6246 23.0273C91.3408 23.0273 91.8063 22.7799 92.0211 22.2852C92.2424 21.7904 92.3531 20.9668 92.3531 19.8145V11.7285C92.3531 11.2402 92.581 10.9961 93.0367 10.9961H94.5211C94.9768 10.9961 95.2047 11.2402 95.2047 11.7285V19.6191C95.2047 22.015 94.801 23.5677 93.9938 24.2773C93.193 24.9805 92.0797 25.332 90.6539 25.332C89.6578 25.332 88.8635 25.1595 88.2711 24.8145ZM98.6961 25C98.2404 25 98.0125 24.7559 98.0125 24.2676V11.7285C98.0125 11.2402 98.2404 10.9961 98.6961 10.9961H107.075C107.563 10.9961 107.807 11.2077 107.807 11.6309V12.7832C107.807 13.2064 107.563 13.418 107.075 13.418H100.864V16.5234H106.557C107.046 16.5234 107.29 16.735 107.29 17.1582V18.3105C107.29 18.7337 107.046 18.9453 106.557 18.9453H100.864V22.5781H107.388C107.876 22.5781 108.12 22.7897 108.12 23.2129V24.3652C108.12 24.7884 107.876 25 107.388 25H98.6961ZM109.59 17.998C109.59 15.752 110.16 13.9681 111.299 12.6465C112.438 11.3249 114.082 10.6641 116.23 10.6641C117.467 10.6641 118.516 10.8561 119.375 11.2402C120.234 11.6243 120.84 12.181 121.191 12.9102C121.426 13.3919 121.387 13.7174 121.074 13.8867L119.902 14.5117C119.492 14.7331 119.154 14.6094 118.887 14.1406C118.717 13.8411 118.402 13.571 117.939 13.3301C117.484 13.0892 116.947 12.9688 116.328 12.9688C114.961 12.9688 114.004 13.4017 113.457 14.2676C112.91 15.127 112.637 16.3704 112.637 17.998C112.637 19.6257 112.91 20.8724 113.457 21.7383C114.004 22.5977 114.961 23.0273 116.328 23.0273C117.064 23.0273 117.682 22.8613 118.184 22.5293C118.691 22.1973 119.043 21.8815 119.238 21.582C119.557 21.0938 119.896 20.9701 120.254 21.2109L121.426 21.9922C121.745 22.207 121.777 22.5326 121.523 22.9688C121.146 23.6198 120.498 24.1764 119.58 24.6387C118.662 25.1009 117.546 25.332 116.23 25.332C114.115 25.332 112.477 24.6712 111.318 23.3496C110.166 22.028 109.59 20.2441 109.59 17.998ZM123.462 13.4961C122.974 13.4961 122.73 13.2845 122.73 12.8613V11.6309C122.73 11.2077 122.974 10.9961 123.462 10.9961H133.501C133.989 10.9961 134.234 11.2077 134.234 11.6309V12.8613C134.234 13.2845 133.989 13.4961 133.501 13.4961H129.907V24.4629C129.907 24.821 129.745 25 129.419 25H127.544C127.219 25 127.056 24.821 127.056 24.4629V13.4961H123.462ZM142.066 13.4961C141.578 13.4961 141.334 13.2845 141.334 12.8613V11.6309C141.334 11.2077 141.578 10.9961 142.066 10.9961H152.105C152.593 10.9961 152.838 11.2077 152.838 11.6309V12.8613C152.838 13.2845 152.593 13.4961 152.105 13.4961H148.511V24.4629C148.511 24.821 148.349 25 148.023 25H146.148C145.823 25 145.66 24.821 145.66 24.4629V13.4961H142.066ZM155.216 25C154.76 25 154.532 24.7559 154.532 24.2676V11.7285C154.532 11.2402 154.76 10.9961 155.216 10.9961H159.737C161.749 10.9961 163.217 11.3086 164.141 11.9336C165.066 12.5521 165.528 13.5612 165.528 14.9609C165.528 16.0026 165.154 16.8327 164.405 17.4512C163.656 18.0697 162.706 18.4798 161.554 18.6816V18.7012C162.179 18.9355 162.651 19.2611 162.97 19.6777C163.289 20.0944 163.549 20.459 163.751 20.7715L165.899 24.1602C166.257 24.7201 166.134 25 165.528 25H163.829C163.471 25 163.178 24.8079 162.95 24.4238L160.977 21.1328C160.762 20.7812 160.369 20.3971 159.796 19.9805C159.229 19.5573 158.666 19.3457 158.106 19.3457H157.384V24.2676C157.384 24.7559 157.156 25 156.7 25H155.216ZM157.384 16.9238H159.132C160.434 16.9238 161.358 16.7773 161.905 16.4844C162.458 16.1849 162.735 15.7129 162.735 15.0684C162.735 14.3652 162.468 13.9095 161.934 13.7012C161.407 13.4863 160.629 13.3789 159.6 13.3789H157.384V16.9238ZM167.838 25C167.369 25 167.216 24.7852 167.379 24.3555L172.164 11.7871C172.366 11.2598 172.672 10.9961 173.082 10.9961H174.449C174.859 10.9961 175.165 11.2598 175.367 11.7871L180.152 24.3555C180.315 24.7852 180.162 25 179.693 25H178.141C177.711 25 177.411 24.7754 177.242 24.3262L176.246 21.6992H171.285L170.289 24.3262C170.12 24.7754 169.82 25 169.391 25H167.838ZM172.193 19.2773H175.338L174.137 16.1719C173.993 15.8073 173.906 15.5436 173.873 15.3809C173.847 15.2116 173.818 14.9642 173.785 14.6387H173.746C173.714 14.9642 173.681 15.2116 173.648 15.3809C173.622 15.5436 173.538 15.8073 173.395 16.1719L172.193 19.2773ZM180.968 17.998C180.968 15.752 181.538 13.9681 182.677 12.6465C183.816 11.3249 185.46 10.6641 187.609 10.6641C188.846 10.6641 189.894 10.8561 190.753 11.2402C191.613 11.6243 192.218 12.181 192.57 12.9102C192.804 13.3919 192.765 13.7174 192.452 13.8867L191.28 14.5117C190.87 14.7331 190.532 14.6094 190.265 14.1406C190.096 13.8411 189.78 13.571 189.318 13.3301C188.862 13.0892 188.325 12.9688 187.706 12.9688C186.339 12.9688 185.382 13.4017 184.835 14.2676C184.288 15.127 184.015 16.3704 184.015 17.998C184.015 19.6257 184.288 20.8724 184.835 21.7383C185.382 22.5977 186.339 23.0273 187.706 23.0273C188.442 23.0273 189.06 22.8613 189.562 22.5293C190.07 22.1973 190.421 21.8815 190.616 21.582C190.935 21.0938 191.274 20.9701 191.632 21.2109L192.804 21.9922C193.123 22.207 193.155 22.5326 192.902 22.9688C192.524 23.6198 191.876 24.1764 190.958 24.6387C190.04 25.1009 188.924 25.332 187.609 25.332C185.493 25.332 183.855 24.6712 182.696 23.3496C181.544 22.028 180.968 20.2441 180.968 17.998ZM196.022 25C195.566 25 195.338 24.7559 195.338 24.2676V11.7285C195.338 11.2402 195.566 10.9961 196.022 10.9961H197.506C197.962 10.9961 198.19 11.2402 198.19 11.7285V15.6152C198.19 16.0059 198.174 16.3965 198.141 16.7871H198.209L202.955 11.5723C203.307 11.1882 203.607 10.9961 203.854 10.9961H205.817C206.579 10.9961 206.702 11.276 206.188 11.8359L201.745 16.6992L206.5 24.1602C206.858 24.7201 206.735 25 206.129 25H204.303C203.965 25 203.672 24.8079 203.424 24.4238L199.83 18.7891L198.19 20.6348V24.2676C198.19 24.7559 197.962 25 197.506 25H196.022ZM209.123 25C208.667 25 208.439 24.7559 208.439 24.2676V11.7285C208.439 11.2402 208.667 10.9961 209.123 10.9961H217.502C217.99 10.9961 218.234 11.2077 218.234 11.6309V12.7832C218.234 13.2064 217.99 13.418 217.502 13.418H211.291V16.5234H216.984C217.472 16.5234 217.716 16.735 217.716 17.1582V18.3105C217.716 18.7337 217.472 18.9453 216.984 18.9453H211.291V22.5781H217.814C218.302 22.5781 218.546 22.7897 218.546 23.2129V24.3652C218.546 24.7884 218.302 25 217.814 25H209.123ZM221.423 25C220.967 25 220.739 24.7559 220.739 24.2676V11.7285C220.739 11.2402 220.967 10.9961 221.423 10.9961H225.944C227.956 10.9961 229.424 11.3086 230.348 11.9336C231.273 12.5521 231.735 13.5612 231.735 14.9609C231.735 16.0026 231.361 16.8327 230.612 17.4512C229.863 18.0697 228.913 18.4798 227.761 18.6816V18.7012C228.386 18.9355 228.858 19.2611 229.177 19.6777C229.496 20.0944 229.756 20.459 229.958 20.7715L232.106 24.1602C232.464 24.7201 232.341 25 231.735 25H230.036C229.678 25 229.385 24.8079 229.157 24.4238L227.184 21.1328C226.97 20.7812 226.576 20.3971 226.003 19.9805C225.436 19.5573 224.873 19.3457 224.313 19.3457H223.591V24.2676C223.591 24.7559 223.363 25 222.907 25H221.423ZM223.591 16.9238H225.339C226.641 16.9238 227.565 16.7773 228.112 16.4844C228.665 16.1849 228.942 15.7129 228.942 15.0684C228.942 14.3652 228.675 13.9095 228.141 13.7012C227.614 13.4863 226.836 13.3789 225.807 13.3789H223.591V16.9238Z" fill="#563444"/>
</svg>
