<svg width="233" height="39" viewBox="0 0 233 39" fill="none" xmlns="http://www.w3.org/2000/svg">
<path d="M19.5 39C30.2696 39 39 30.2696 39 19.5C39 8.73045 30.2696 0 19.5 0C8.73045 0 0 8.73045 0 19.5C0 30.2696 8.73045 39 19.5 39Z" fill="#1A97B0"/>
<path fill-rule="evenodd" clip-rule="evenodd" d="M22.0584 25.4711L29.3669 18.1845C30.4195 17.1351 30.9457 16.6104 31.2229 15.9432C31.5001 15.276 31.5001 14.534 31.5001 13.0499V12.341C31.5001 10.0589 31.5001 8.91789 30.789 8.20894C30.078 7.5 28.9335 7.5 26.6446 7.5H25.9335C24.445 7.5 23.7008 7.5 23.0315 7.77638C22.3623 8.05275 21.836 8.57744 20.7835 9.62682L13.4749 16.9135C12.245 18.1396 11.4824 18.9 11.1871 19.6344C11.0938 19.8664 11.0471 20.0959 11.0471 20.3365C11.0471 21.3391 11.8564 22.146 13.4749 23.7596L13.6924 23.9765L16.2406 21.3904C16.604 21.0215 17.1975 21.0171 17.5664 21.3805C17.9351 21.7439 17.9395 22.3375 17.5761 22.7064L15.0203 25.3004L15.1916 25.4711C16.8101 27.0849 17.6194 27.8916 18.625 27.8916C18.8471 27.8916 19.0598 27.8522 19.2736 27.7735C20.0278 27.4957 20.7975 26.7282 22.0584 25.4711ZM25.4919 16.914C24.5438 17.8592 23.0066 17.8592 22.0585 16.914C21.1104 15.9687 21.1104 14.4362 22.0585 13.4909C23.0066 12.5457 24.5438 12.5457 25.4919 13.4909C26.44 14.4362 26.44 15.9687 25.4919 16.914Z" fill="white"/>
<g opacity="0.5">
<path d="M15.2929 12.4538L12.1139 15.6232C11.5296 16.2057 10.9936 16.7401 10.5703 17.2232C10.2985 17.5334 10.0268 17.873 9.79672 18.2481L9.76574 18.2172C9.70694 18.1586 9.67752 18.1292 9.64799 18.1006C9.09545 17.5645 8.44552 17.1383 7.73295 16.8447C7.69488 16.829 7.65623 16.8137 7.57893 16.7831L7.10562 16.5955C6.46442 16.3414 6.29353 15.516 6.78143 15.0296C8.18169 13.6335 9.8629 11.9574 10.6743 11.6208C11.3898 11.3239 12.1628 11.2251 12.9083 11.3353C13.5914 11.4362 14.2376 11.7871 15.2929 12.4538Z" fill="white"/>
<path d="M20.7209 29.1415C20.977 29.4015 21.1471 29.5851 21.301 29.7814C21.5039 30.0402 21.6854 30.3152 21.8435 30.6036C22.0215 30.9282 22.1598 31.275 22.4363 31.9685C22.6613 32.5331 23.409 32.6824 23.8433 32.2494L23.9483 32.1446C25.3485 30.7485 27.0296 29.0724 27.3673 28.2635C27.6651 27.55 27.7641 26.7794 27.6536 26.0361C27.5524 25.3551 27.2006 24.711 26.532 23.6591L23.3425 26.8391C22.7449 27.4349 22.197 27.9812 21.7015 28.4091C21.4045 28.6656 21.0796 28.922 20.7209 29.1415Z" fill="white"/>
</g>
<path d="M47.2461 25C46.7904 25 46.5625 24.7559 46.5625 24.2676V11.7285C46.5625 11.2402 46.7904 10.9961 47.2461 10.9961H50.8984C53.2422 10.9961 54.8665 11.377 55.7715 12.1387C56.6829 12.9004 57.1387 13.9811 57.1387 15.3809C57.1387 16.7806 56.6829 17.8613 55.7715 18.623C54.8665 19.3848 53.2422 19.7656 50.8984 19.7656H49.4141V24.2676C49.4141 24.7559 49.1862 25 48.7305 25H47.2461ZM49.4141 17.3828H50.8887C52.1908 17.3828 53.0762 17.2298 53.5449 16.9238C54.0137 16.6113 54.248 16.097 54.248 15.3809C54.248 14.6647 54.0137 14.1536 53.5449 13.8477C53.0762 13.5352 52.1908 13.3789 50.8887 13.3789H49.4141V17.3828ZM60.0148 25C59.5591 25 59.3313 24.7559 59.3313 24.2676V11.7285C59.3313 11.2402 59.5591 10.9961 60.0148 10.9961H64.5363C66.548 10.9961 68.0161 11.3086 68.9406 11.9336C69.8651 12.5521 70.3273 13.5612 70.3273 14.9609C70.3273 16.0026 69.953 16.8327 69.2043 17.4512C68.4556 18.0697 67.5051 18.4798 66.3527 18.6816V18.7012C66.9777 18.9355 67.4497 19.2611 67.7688 19.6777C68.0878 20.0944 68.3482 20.459 68.55 20.7715L70.6984 24.1602C71.0565 24.7201 70.9328 25 70.3273 25H68.6281C68.2701 25 67.9771 24.8079 67.7492 24.4238L65.7766 21.1328C65.5617 20.7812 65.1678 20.3971 64.5949 19.9805C64.0285 19.5573 63.4654 19.3457 62.9055 19.3457H62.1828V24.2676C62.1828 24.7559 61.9549 25 61.4992 25H60.0148ZM62.1828 16.9238H63.9309C65.2329 16.9238 66.1574 16.7773 66.7043 16.4844C67.2577 16.1849 67.5344 15.7129 67.5344 15.0684C67.5344 14.3652 67.2674 13.9095 66.7336 13.7012C66.2063 13.4863 65.4283 13.3789 64.3996 13.3789H62.1828V16.9238ZM72.3539 17.998C72.3539 15.752 72.9333 13.9681 74.0922 12.6465C75.251 11.3249 76.9047 10.6641 79.0531 10.6641C81.2016 10.6641 82.8552 11.3249 84.0141 12.6465C85.1729 13.9681 85.7523 15.752 85.7523 17.998C85.7523 20.2441 85.1729 22.028 84.0141 23.3496C82.8552 24.6712 81.2016 25.332 79.0531 25.332C76.9047 25.332 75.251 24.6712 74.0922 23.3496C72.9333 22.028 72.3539 20.2441 72.3539 17.998ZM75.4008 17.998C75.4008 19.6257 75.6905 20.8724 76.2699 21.7383C76.8559 22.5977 77.7836 23.0273 79.0531 23.0273C80.3227 23.0273 81.2471 22.5977 81.8266 21.7383C82.4125 20.8724 82.7055 19.6257 82.7055 17.998C82.7055 16.3704 82.4125 15.127 81.8266 14.2676C81.2471 13.4017 80.3227 12.9688 79.0531 12.9688C77.7836 12.9688 76.8559 13.4017 76.2699 14.2676C75.6905 15.127 75.4008 16.3704 75.4008 17.998ZM87.2711 24.8145C86.926 24.6126 86.7958 24.3685 86.8805 24.082L87.2906 22.7441C87.4078 22.36 87.7138 22.321 88.2086 22.627C88.6318 22.8939 89.1038 23.0273 89.6246 23.0273C90.3408 23.0273 90.8063 22.7799 91.0211 22.2852C91.2424 21.7904 91.3531 20.9668 91.3531 19.8145V11.7285C91.3531 11.2402 91.581 10.9961 92.0367 10.9961H93.5211C93.9768 10.9961 94.2047 11.2402 94.2047 11.7285V19.6191C94.2047 22.015 93.801 23.5677 92.9938 24.2773C92.193 24.9805 91.0797 25.332 89.6539 25.332C88.6578 25.332 87.8635 25.1595 87.2711 24.8145ZM97.6961 25C97.2404 25 97.0125 24.7559 97.0125 24.2676V11.7285C97.0125 11.2402 97.2404 10.9961 97.6961 10.9961H106.075C106.563 10.9961 106.807 11.2077 106.807 11.6309V12.7832C106.807 13.2064 106.563 13.418 106.075 13.418H99.8641V16.5234H105.557C106.046 16.5234 106.29 16.735 106.29 17.1582V18.3105C106.29 18.7337 106.046 18.9453 105.557 18.9453H99.8641V22.5781H106.388C106.876 22.5781 107.12 22.7897 107.12 23.2129V24.3652C107.12 24.7884 106.876 25 106.388 25H97.6961ZM108.59 17.998C108.59 15.752 109.16 13.9681 110.299 12.6465C111.438 11.3249 113.082 10.6641 115.23 10.6641C116.467 10.6641 117.516 10.8561 118.375 11.2402C119.234 11.6243 119.84 12.181 120.191 12.9102C120.426 13.3919 120.387 13.7174 120.074 13.8867L118.902 14.5117C118.492 14.7331 118.154 14.6094 117.887 14.1406C117.717 13.8411 117.402 13.571 116.939 13.3301C116.484 13.0892 115.947 12.9688 115.328 12.9688C113.961 12.9688 113.004 13.4017 112.457 14.2676C111.91 15.127 111.637 16.3704 111.637 17.998C111.637 19.6257 111.91 20.8724 112.457 21.7383C113.004 22.5977 113.961 23.0273 115.328 23.0273C116.064 23.0273 116.682 22.8613 117.184 22.5293C117.691 22.1973 118.043 21.8815 118.238 21.582C118.557 21.0938 118.896 20.9701 119.254 21.2109L120.426 21.9922C120.745 22.207 120.777 22.5326 120.523 22.9688C120.146 23.6198 119.498 24.1764 118.58 24.6387C117.662 25.1009 116.546 25.332 115.23 25.332C113.115 25.332 111.477 24.6712 110.318 23.3496C109.166 22.028 108.59 20.2441 108.59 17.998ZM122.462 13.4961C121.974 13.4961 121.73 13.2845 121.73 12.8613V11.6309C121.73 11.2077 121.974 10.9961 122.462 10.9961H132.501C132.989 10.9961 133.234 11.2077 133.234 11.6309V12.8613C133.234 13.2845 132.989 13.4961 132.501 13.4961H128.907V24.4629C128.907 24.821 128.745 25 128.419 25H126.544C126.219 25 126.056 24.821 126.056 24.4629V13.4961H122.462ZM141.066 13.4961C140.578 13.4961 140.334 13.2845 140.334 12.8613V11.6309C140.334 11.2077 140.578 10.9961 141.066 10.9961H151.105C151.593 10.9961 151.838 11.2077 151.838 11.6309V12.8613C151.838 13.2845 151.593 13.4961 151.105 13.4961H147.511V24.4629C147.511 24.821 147.349 25 147.023 25H145.148C144.823 25 144.66 24.821 144.66 24.4629V13.4961H141.066ZM154.216 25C153.76 25 153.532 24.7559 153.532 24.2676V11.7285C153.532 11.2402 153.76 10.9961 154.216 10.9961H158.737C160.749 10.9961 162.217 11.3086 163.141 11.9336C164.066 12.5521 164.528 13.5612 164.528 14.9609C164.528 16.0026 164.154 16.8327 163.405 17.4512C162.656 18.0697 161.706 18.4798 160.554 18.6816V18.7012C161.179 18.9355 161.651 19.2611 161.97 19.6777C162.289 20.0944 162.549 20.459 162.751 20.7715L164.899 24.1602C165.257 24.7201 165.134 25 164.528 25H162.829C162.471 25 162.178 24.8079 161.95 24.4238L159.977 21.1328C159.762 20.7812 159.369 20.3971 158.796 19.9805C158.229 19.5573 157.666 19.3457 157.106 19.3457H156.384V24.2676C156.384 24.7559 156.156 25 155.7 25H154.216ZM156.384 16.9238H158.132C159.434 16.9238 160.358 16.7773 160.905 16.4844C161.458 16.1849 161.735 15.7129 161.735 15.0684C161.735 14.3652 161.468 13.9095 160.934 13.7012C160.407 13.4863 159.629 13.3789 158.6 13.3789H156.384V16.9238ZM166.838 25C166.369 25 166.216 24.7852 166.379 24.3555L171.164 11.7871C171.366 11.2598 171.672 10.9961 172.082 10.9961H173.449C173.859 10.9961 174.165 11.2598 174.367 11.7871L179.152 24.3555C179.315 24.7852 179.162 25 178.693 25H177.141C176.711 25 176.411 24.7754 176.242 24.3262L175.246 21.6992H170.285L169.289 24.3262C169.12 24.7754 168.82 25 168.391 25H166.838ZM171.193 19.2773H174.338L173.137 16.1719C172.993 15.8073 172.906 15.5436 172.873 15.3809C172.847 15.2116 172.818 14.9642 172.785 14.6387H172.746C172.714 14.9642 172.681 15.2116 172.648 15.3809C172.622 15.5436 172.538 15.8073 172.395 16.1719L171.193 19.2773ZM179.968 17.998C179.968 15.752 180.538 13.9681 181.677 12.6465C182.816 11.3249 184.46 10.6641 186.609 10.6641C187.846 10.6641 188.894 10.8561 189.753 11.2402C190.613 11.6243 191.218 12.181 191.57 12.9102C191.804 13.3919 191.765 13.7174 191.452 13.8867L190.28 14.5117C189.87 14.7331 189.532 14.6094 189.265 14.1406C189.096 13.8411 188.78 13.571 188.318 13.3301C187.862 13.0892 187.325 12.9688 186.706 12.9688C185.339 12.9688 184.382 13.4017 183.835 14.2676C183.288 15.127 183.015 16.3704 183.015 17.998C183.015 19.6257 183.288 20.8724 183.835 21.7383C184.382 22.5977 185.339 23.0273 186.706 23.0273C187.442 23.0273 188.06 22.8613 188.562 22.5293C189.07 22.1973 189.421 21.8815 189.616 21.582C189.935 21.0938 190.274 20.9701 190.632 21.2109L191.804 21.9922C192.123 22.207 192.155 22.5326 191.902 22.9688C191.524 23.6198 190.876 24.1764 189.958 24.6387C189.04 25.1009 187.924 25.332 186.609 25.332C184.493 25.332 182.855 24.6712 181.696 23.3496C180.544 22.028 179.968 20.2441 179.968 17.998ZM195.022 25C194.566 25 194.338 24.7559 194.338 24.2676V11.7285C194.338 11.2402 194.566 10.9961 195.022 10.9961H196.506C196.962 10.9961 197.19 11.2402 197.19 11.7285V15.6152C197.19 16.0059 197.174 16.3965 197.141 16.7871H197.209L201.955 11.5723C202.307 11.1882 202.607 10.9961 202.854 10.9961H204.817C205.579 10.9961 205.702 11.276 205.188 11.8359L200.745 16.6992L205.5 24.1602C205.858 24.7201 205.735 25 205.129 25H203.303C202.965 25 202.672 24.8079 202.424 24.4238L198.83 18.7891L197.19 20.6348V24.2676C197.19 24.7559 196.962 25 196.506 25H195.022ZM208.123 25C207.667 25 207.439 24.7559 207.439 24.2676V11.7285C207.439 11.2402 207.667 10.9961 208.123 10.9961H216.502C216.99 10.9961 217.234 11.2077 217.234 11.6309V12.7832C217.234 13.2064 216.99 13.418 216.502 13.418H210.291V16.5234H215.984C216.472 16.5234 216.716 16.735 216.716 17.1582V18.3105C216.716 18.7337 216.472 18.9453 215.984 18.9453H210.291V22.5781H216.814C217.302 22.5781 217.546 22.7897 217.546 23.2129V24.3652C217.546 24.7884 217.302 25 216.814 25H208.123ZM220.423 25C219.967 25 219.739 24.7559 219.739 24.2676V11.7285C219.739 11.2402 219.967 10.9961 220.423 10.9961H224.944C226.956 10.9961 228.424 11.3086 229.348 11.9336C230.273 12.5521 230.735 13.5612 230.735 14.9609C230.735 16.0026 230.361 16.8327 229.612 17.4512C228.863 18.0697 227.913 18.4798 226.761 18.6816V18.7012C227.386 18.9355 227.858 19.2611 228.177 19.6777C228.496 20.0944 228.756 20.459 228.958 20.7715L231.106 24.1602C231.464 24.7201 231.341 25 230.735 25H229.036C228.678 25 228.385 24.8079 228.157 24.4238L226.184 21.1328C225.97 20.7812 225.576 20.3971 225.003 19.9805C224.436 19.5573 223.873 19.3457 223.313 19.3457H222.591V24.2676C222.591 24.7559 222.363 25 221.907 25H220.423ZM222.591 16.9238H224.339C225.641 16.9238 226.565 16.7773 227.112 16.4844C227.665 16.1849 227.942 15.7129 227.942 15.0684C227.942 14.3652 227.675 13.9095 227.141 13.7012C226.614 13.4863 225.836 13.3789 224.807 13.3789H222.591V16.9238Z" fill="#1A97B0"/>
</svg>
