<svg width="39" height="39" viewBox="0 0 39 39" fill="none" xmlns="http://www.w3.org/2000/svg">
<circle cx="19.5" cy="19.5" r="19.5" fill="#563444"/>
<path fill-rule="evenodd" clip-rule="evenodd" d="M22.0584 25.4711L29.3669 18.1845C30.4195 17.1351 30.9457 16.6104 31.2229 15.9432C31.5001 15.276 31.5001 14.534 31.5001 13.0499V12.341C31.5001 10.0589 31.5001 8.91789 30.789 8.20894C30.078 7.5 28.9335 7.5 26.6446 7.5H25.9335C24.445 7.5 23.7008 7.5 23.0315 7.77638C22.3623 8.05275 21.836 8.57744 20.7835 9.62682L13.4749 16.9135C12.245 18.1396 11.4824 18.9 11.1871 19.6344C11.0938 19.8664 11.0471 20.0959 11.0471 20.3365C11.0471 21.3391 11.8564 22.146 13.4749 23.7596L13.6924 23.9765L16.2406 21.3904C16.604 21.0215 17.1975 21.0171 17.5664 21.3805C17.9351 21.7439 17.9395 22.3375 17.5761 22.7064L15.0203 25.3004L15.1916 25.4711C16.8101 27.0849 17.6194 27.8916 18.625 27.8916C18.8471 27.8916 19.0598 27.8522 19.2736 27.7735C20.0278 27.4957 20.7975 26.7282 22.0584 25.4711ZM25.4919 16.914C24.5438 17.8592 23.0066 17.8592 22.0585 16.914C21.1104 15.9687 21.1104 14.4362 22.0585 13.4909C23.0066 12.5457 24.5438 12.5457 25.4919 13.4909C26.44 14.4362 26.44 15.9687 25.4919 16.914Z" fill="white"/>
<g opacity="0.5">
<path d="M15.2929 12.4538L12.1139 15.6232C11.5296 16.2057 10.9936 16.7401 10.5703 17.2232C10.2985 17.5334 10.0268 17.873 9.79671 18.2481L9.76574 18.2172C9.70694 18.1586 9.67751 18.1292 9.64799 18.1006C9.09545 17.5645 8.44551 17.1383 7.73295 16.8447C7.69487 16.829 7.65622 16.8137 7.57892 16.7831L7.10561 16.5955C6.46441 16.3414 6.29352 15.516 6.78142 15.0296C8.18169 13.6335 9.8629 11.9574 10.6743 11.6208C11.3898 11.3239 12.1628 11.2251 12.9083 11.3353C13.5914 11.4362 14.2376 11.7871 15.2929 12.4538Z" fill="white"/>
<path d="M20.7209 29.1415C20.977 29.4015 21.1471 29.5851 21.301 29.7814C21.5039 30.0402 21.6854 30.3152 21.8435 30.6036C22.0215 30.9282 22.1597 31.275 22.4362 31.9685C22.6612 32.5331 23.409 32.6824 23.8432 32.2494L23.9482 32.1446C25.3485 30.7485 27.0296 29.0724 27.3672 28.2635C27.6651 27.55 27.7641 26.7794 27.6536 26.0361C27.5524 25.3551 27.2006 24.711 26.532 23.6591L23.3425 26.8391C22.7449 27.4349 22.197 27.9812 21.7015 28.4091C21.4045 28.6656 21.0796 28.922 20.7209 29.1415Z" fill="white"/>
</g>
</svg>
